<svg width="43" height="45" viewBox="0 0 43 45" fill="none" xmlns="http://www.w3.org/2000/svg">
<rect x="0.5" y="2.5" width="42" height="39" rx="9.5" fill="white" stroke="#0C2C55"/>
<mask id="path-2-outside-1_56_227" maskUnits="userSpaceOnUse" x="9" y="9" width="25" height="25" fill="black">
<rect fill="white" x="9" y="9" width="25" height="25"/>
<path d="M11.764 33L19.72 21.768L11.692 10.392H15.076L21.592 19.608L27.568 10.392H30.988L23.14 21.732L31.276 33H27.82L21.268 23.964L15.148 33H11.764Z"/>
</mask>
<path d="M11.764 33L19.72 21.768L11.692 10.392H15.076L21.592 19.608L27.568 10.392H30.988L23.14 21.732L31.276 33H27.82L21.268 23.964L15.148 33H11.764Z" fill="#0C2C55"/>
<path d="M11.764 33L10.948 32.422L9.83021 34H11.764V33ZM19.72 21.768L20.536 22.346L20.9447 21.7691L20.537 21.1914L19.72 21.768ZM11.692 10.392V9.392H9.76237L10.875 10.9686L11.692 10.392ZM15.076 10.392L15.8925 9.81469L15.5937 9.392H15.076V10.392ZM21.592 19.608L20.7755 20.1853L21.6278 21.3908L22.431 20.1521L21.592 19.608ZM27.568 10.392V9.392H27.0246L26.729 9.84793L27.568 10.392ZM30.988 10.392L31.8103 10.9611L32.8962 9.392H30.988V10.392ZM23.14 21.732L22.3177 21.1629L21.9154 21.7442L22.3293 22.3174L23.14 21.732ZM31.276 33V34H33.2315L32.0867 32.4146L31.276 33ZM27.82 33L27.0104 33.587L27.3099 34H27.82V33ZM21.268 23.964L22.0776 23.377L21.2401 22.222L20.44 23.4032L21.268 23.964ZM15.148 33V34H15.6785L15.976 33.5608L15.148 33ZM12.58 33.578L20.536 22.346L18.904 21.19L10.948 32.422L12.58 33.578ZM20.537 21.1914L12.509 9.81542L10.875 10.9686L18.903 22.3446L20.537 21.1914ZM11.692 11.392H15.076V9.392H11.692V11.392ZM14.2595 10.9693L20.7755 20.1853L22.4085 19.0307L15.8925 9.81469L14.2595 10.9693ZM22.431 20.1521L28.407 10.9361L26.729 9.84793L20.753 19.0639L22.431 20.1521ZM27.568 11.392H30.988V9.392H27.568V11.392ZM30.1657 9.82293L22.3177 21.1629L23.9623 22.3011L31.8103 10.9611L30.1657 9.82293ZM22.3293 22.3174L30.4653 33.5854L32.0867 32.4146L23.9507 21.1466L22.3293 22.3174ZM31.276 32H27.82V34H31.276V32ZM28.6296 32.413L22.0776 23.377L20.4584 24.551L27.0104 33.587L28.6296 32.413ZM20.44 23.4032L14.32 32.4392L15.976 33.5608L22.096 24.5248L20.44 23.4032ZM15.148 32H11.764V34H15.148V32Z" fill="#0C2C55" mask="url(#path-2-outside-1_56_227)"/>
</svg>
