<svg width="427" height="51" viewBox="0 0 427 51" fill="none" xmlns="http://www.w3.org/2000/svg">
<rect x="124" y="34" width="146" height="13" fill="#FFDC7F" fill-opacity="0.7"/>
<path d="M22.7467 22.336C21.9627 22.336 21.1867 22.224 20.4187 22C19.6667 21.76 18.9867 21.376 18.3787 20.848C18.0267 20.544 17.6987 20.16 17.3947 19.696C17.1067 19.216 16.9627 18.752 16.9627 18.304C16.9627 18.08 17.0267 17.888 17.1547 17.728C17.2827 17.552 17.4747 17.464 17.7307 17.464C18.0347 17.464 18.2507 17.624 18.3787 17.944C18.5227 18.264 18.7067 18.608 18.9307 18.976C19.3467 19.568 19.8427 20.024 20.4187 20.344C20.9947 20.648 21.7467 20.8 22.6747 20.8C23.5547 20.8 24.3227 20.632 24.9787 20.296C25.6507 19.944 26.1787 19.464 26.5627 18.856C26.9467 18.232 27.1387 17.512 27.1387 16.696C27.1387 16.04 26.9467 15.44 26.5627 14.896C26.1787 14.352 25.6907 13.832 25.0987 13.336C24.5067 12.824 23.8667 12.32 23.1787 11.824C22.5067 11.328 21.8747 10.808 21.2827 10.264C20.6907 9.704 20.2027 9.096 19.8187 8.44C19.4347 7.784 19.2427 7.048 19.2427 6.232C19.2427 5.096 19.5147 4.152 20.0587 3.4C20.6187 2.632 21.3627 2.056 22.2907 1.672C23.2347 1.272 24.2667 1.072 25.3867 1.072C26.2027 1.072 26.9707 1.216 27.6907 1.504C28.4267 1.776 29.0267 2.112 29.4907 2.512C29.9547 2.912 30.1867 3.312 30.1867 3.712C30.1867 4.208 29.9627 4.456 29.5147 4.456C29.2907 4.456 29.0587 4.36 28.8187 4.168C28.5947 3.976 28.3227 3.76 28.0027 3.52C27.6987 3.28 27.3147 3.064 26.8507 2.872C26.4027 2.68 25.8347 2.584 25.1467 2.584C23.9787 2.584 23.0267 2.904 22.2907 3.544C21.5547 4.184 21.1867 5.064 21.1867 6.184C21.1867 6.808 21.3707 7.384 21.7387 7.912C22.1227 8.424 22.6107 8.928 23.2027 9.424C23.8107 9.904 24.4507 10.392 25.1227 10.888C25.7947 11.368 26.4267 11.888 27.0187 12.448C27.6267 13.008 28.1147 13.632 28.4827 14.32C28.8667 14.992 29.0587 15.752 29.0587 16.6C29.0587 17.8 28.7867 18.832 28.2427 19.696C27.7147 20.544 26.9707 21.2 26.0107 21.664C25.0667 22.112 23.9787 22.336 22.7467 22.336ZM37.2356 22.336C35.5556 22.336 34.2836 21.872 33.4196 20.944C32.5556 20.016 32.1236 18.712 32.1236 17.032C32.1236 15.8 32.3316 14.736 32.7476 13.84C33.1796 12.928 33.7316 12.176 34.4036 11.584C35.0756 10.992 35.7876 10.552 36.5396 10.264C37.2916 9.976 38.0036 9.832 38.6756 9.832C39.5236 9.832 40.2356 10.04 40.8116 10.456C41.3876 10.872 41.6756 11.48 41.6756 12.28C41.6756 13.224 41.3316 14.056 40.6436 14.776C39.9556 15.496 39.0356 16.056 37.8836 16.456C36.7476 16.856 35.4756 17.056 34.0676 17.056C34.0676 18.224 34.3396 19.152 34.8836 19.84C35.4436 20.512 36.2596 20.848 37.3316 20.848C37.8916 20.848 38.3796 20.744 38.7956 20.536C39.2276 20.312 39.5716 20.096 39.8276 19.888C40.0996 19.68 40.2516 19.576 40.2836 19.576C40.4756 19.576 40.6276 19.704 40.7396 19.96C40.8676 20.2 40.9316 20.432 40.9316 20.656C40.9316 20.816 40.7396 21.032 40.3556 21.304C39.9716 21.576 39.4916 21.816 38.9156 22.024C38.3556 22.232 37.7956 22.336 37.2356 22.336ZM34.1636 15.64C34.8676 15.64 35.5636 15.568 36.2516 15.424C36.9396 15.264 37.5556 15.048 38.0996 14.776C38.6596 14.504 39.0996 14.176 39.4196 13.792C39.7556 13.408 39.9236 12.984 39.9236 12.52C39.9236 12.104 39.7956 11.792 39.5396 11.584C39.2836 11.376 38.9636 11.272 38.5796 11.272C38.0836 11.272 37.5236 11.44 36.8996 11.776C36.2756 12.096 35.6996 12.576 35.1716 13.216C34.6596 13.856 34.3236 14.664 34.1636 15.64ZM48.2981 22.336C46.6181 22.336 45.3461 21.872 44.4821 20.944C43.6181 20.016 43.1861 18.712 43.1861 17.032C43.1861 15.8 43.3941 14.736 43.8101 13.84C44.2421 12.928 44.7941 12.176 45.4661 11.584C46.1381 10.992 46.8501 10.552 47.6021 10.264C48.3541 9.976 49.0661 9.832 49.7381 9.832C50.5861 9.832 51.2981 10.04 51.8741 10.456C52.4501 10.872 52.7381 11.48 52.7381 12.28C52.7381 13.224 52.3941 14.056 51.7061 14.776C51.0181 15.496 50.0981 16.056 48.9461 16.456C47.8101 16.856 46.5381 17.056 45.1301 17.056C45.1301 18.224 45.4021 19.152 45.9461 19.84C46.5061 20.512 47.3221 20.848 48.3941 20.848C48.9541 20.848 49.4421 20.744 49.8581 20.536C50.2901 20.312 50.6341 20.096 50.8901 19.888C51.1621 19.68 51.3141 19.576 51.3461 19.576C51.5381 19.576 51.6901 19.704 51.8021 19.96C51.9301 20.2 51.9941 20.432 51.9941 20.656C51.9941 20.816 51.8021 21.032 51.4181 21.304C51.0341 21.576 50.5541 21.816 49.9781 22.024C49.4181 22.232 48.8581 22.336 48.2981 22.336ZM45.2261 15.64C45.9301 15.64 46.6261 15.568 47.3141 15.424C48.0021 15.264 48.6181 15.048 49.1621 14.776C49.7221 14.504 50.1621 14.176 50.4821 13.792C50.8181 13.408 50.9861 12.984 50.9861 12.52C50.9861 12.104 50.8581 11.792 50.6021 11.584C50.3461 11.376 50.0261 11.272 49.6421 11.272C49.1461 11.272 48.5861 11.44 47.9621 11.776C47.3381 12.096 46.7621 12.576 46.2341 13.216C45.7221 13.856 45.3861 14.664 45.2261 15.64ZM63.4231 22.336C63.1191 22.336 62.9031 22.248 62.7751 22.072C62.6471 21.912 62.5751 21.696 62.5591 21.424L61.0471 10.384C61.0471 10.144 61.1351 9.992 61.3111 9.928C61.4871 9.864 61.6791 9.832 61.8871 9.832C62.2551 9.832 62.4871 9.896 62.5831 10.024C62.6951 10.152 62.7831 10.392 62.8471 10.744L64.1911 20.56C64.5591 20.336 64.9911 20 65.4871 19.552C65.9831 19.088 66.5031 18.44 67.0471 17.608C67.5911 16.776 68.0871 15.688 68.5351 14.344L68.0071 10.384C68.0071 10.144 68.0871 9.992 68.2471 9.928C68.4231 9.864 68.6231 9.832 68.8471 9.832C69.2151 9.832 69.4471 9.896 69.5431 10.024C69.6551 10.152 69.7431 10.392 69.8071 10.744L71.1511 20.56C71.4871 20.352 71.8791 20.048 72.3271 19.648C72.7751 19.248 73.2311 18.688 73.6951 17.968C74.1591 17.248 74.5751 16.32 74.9431 15.184C75.3271 14.032 75.6071 12.608 75.7831 10.912C75.7831 10.4 75.8631 10.096 76.0231 10C76.1831 9.888 76.3991 9.832 76.6711 9.832C77.0071 9.832 77.2151 9.896 77.2951 10.024C77.3911 10.152 77.4391 10.448 77.4391 10.912C77.4391 11.92 77.2951 12.96 77.0071 14.032C76.7191 15.104 76.3271 16.136 75.8311 17.128C75.3511 18.104 74.8071 18.984 74.1991 19.768C73.5911 20.552 72.9591 21.176 72.3031 21.64C71.6471 22.104 71.0071 22.336 70.3831 22.336C70.0791 22.336 69.8631 22.248 69.7351 22.072C69.6071 21.912 69.5351 21.696 69.5191 21.424L68.8951 17.056C68.4151 18.032 67.8711 18.92 67.2631 19.72C66.6551 20.52 66.0231 21.16 65.3671 21.64C64.7111 22.104 64.0631 22.336 63.4231 22.336ZM80.2181 22.336C79.9941 22.336 79.8261 22.304 79.7141 22.24C79.6181 22.176 79.5701 22.048 79.5701 21.856L82.0181 1.336C82.0501 1.064 82.1621 0.895999 82.3541 0.831999C82.5461 0.751999 82.7861 0.711999 83.0741 0.711999C83.2821 0.711999 83.4581 0.751999 83.6021 0.831999C83.7461 0.911999 83.8181 1.04 83.8181 1.216L82.5701 12.016C83.0501 11.328 83.6101 10.792 84.2501 10.408C84.8901 10.024 85.6261 9.832 86.4581 9.832C87.7061 9.832 88.6421 10.12 89.2661 10.696C89.9061 11.272 90.2261 12.048 90.2261 13.024C90.2261 13.072 90.2181 13.152 90.2021 13.264C90.2021 13.376 90.1781 13.584 90.1301 13.888C90.0981 14.176 90.0421 14.624 89.9621 15.232C89.8821 15.84 89.7701 16.672 89.6261 17.728C89.4981 18.768 89.3301 20.104 89.1221 21.736C89.0901 21.992 88.9541 22.152 88.7141 22.216C88.4741 22.296 88.2181 22.336 87.9461 22.336C87.7381 22.336 87.5781 22.304 87.4661 22.24C87.3701 22.176 87.3221 22.048 87.3221 21.856L88.3301 13.528C88.3621 13.368 88.3781 13.248 88.3781 13.168C88.3781 12 87.6581 11.416 86.2181 11.416C85.4021 11.416 84.6981 11.672 84.1061 12.184C83.5141 12.696 83.0341 13.4 82.6661 14.296C82.2981 15.176 82.0421 16.184 81.8981 17.32L81.3461 21.736C81.3141 21.992 81.1861 22.152 80.9621 22.216C80.7381 22.296 80.4901 22.336 80.2181 22.336ZM95.5621 22.336C94.7301 22.336 94.0101 22.096 93.4021 21.616C92.7941 21.12 92.4901 20.384 92.4901 19.408C92.4901 18.624 92.7221 17.88 93.1861 17.176C93.6661 16.456 94.4741 15.848 95.6101 15.352C96.7621 14.856 98.3461 14.544 100.362 14.416C100.41 14.128 100.442 13.856 100.458 13.6C100.474 13.328 100.482 13.104 100.482 12.928C100.482 12.352 100.266 11.96 99.8341 11.752C99.4021 11.544 98.8821 11.44 98.2741 11.44C97.6661 11.44 97.1301 11.52 96.6661 11.68C96.2021 11.824 95.8181 11.976 95.5141 12.136C95.2101 12.28 94.9861 12.352 94.8421 12.352C94.6181 12.352 94.4421 12.216 94.3141 11.944C94.2021 11.672 94.1461 11.432 94.1461 11.224C94.1461 11.08 94.2821 10.928 94.5541 10.768C94.8421 10.608 95.2021 10.456 95.6341 10.312C96.0821 10.168 96.5461 10.056 97.0261 9.976C97.5061 9.88 97.9461 9.832 98.3461 9.832C99.0181 9.832 99.6581 9.92 100.266 10.096C100.874 10.256 101.37 10.536 101.754 10.936C102.138 11.336 102.33 11.888 102.33 12.592C102.33 13.088 102.258 13.744 102.114 14.56C101.97 15.36 101.818 16.208 101.658 17.104C101.514 18 101.442 18.848 101.442 19.648C101.442 20.192 101.482 20.608 101.562 20.896C101.658 21.184 101.706 21.44 101.706 21.664C101.706 21.808 101.618 21.928 101.442 22.024C101.282 22.12 101.09 22.192 100.866 22.24C100.658 22.304 100.474 22.336 100.314 22.336C100.17 22.336 100.058 22.216 99.9781 21.976C99.8981 21.736 99.8421 21.448 99.8101 21.112C99.7941 20.776 99.7861 20.464 99.7861 20.176V19.552C99.2901 20.512 98.6501 21.216 97.8661 21.664C97.0821 22.112 96.3141 22.336 95.5621 22.336ZM96.1861 20.752C96.7301 20.752 97.2181 20.608 97.6501 20.32C98.0821 20.016 98.4581 19.624 98.7781 19.144C99.1141 18.648 99.3861 18.112 99.5941 17.536C99.8021 16.96 99.9541 16.4 100.05 15.856C98.6101 15.968 97.4741 16.176 96.6421 16.48C95.8261 16.768 95.2421 17.128 94.8901 17.56C94.5541 17.992 94.3861 18.488 94.3861 19.048C94.3861 19.512 94.5461 19.912 94.8661 20.248C95.1861 20.584 95.6261 20.752 96.1861 20.752ZM107.298 22.336C107.106 22.336 106.938 22.184 106.794 21.88C106.666 21.576 106.562 21.184 106.482 20.704C106.418 20.208 106.386 19.68 106.386 19.12C106.386 18.784 106.402 18.408 106.434 17.992C106.482 17.576 106.514 17.256 106.53 17.032L107.154 11.776H105.786C105.434 11.776 105.258 11.544 105.258 11.08C105.258 10.872 105.322 10.672 105.45 10.48C105.578 10.272 105.746 10.168 105.954 10.168H107.37L107.802 6.472C107.834 6.2 107.994 6 108.282 5.872C108.57 5.744 108.85 5.68 109.122 5.68C109.346 5.68 109.482 5.696 109.53 5.728C109.594 5.76 109.626 5.84 109.626 5.968L109.122 10.168H111.354C111.722 10.168 111.906 10.408 111.906 10.888C111.906 11.08 111.834 11.28 111.69 11.488C111.562 11.68 111.394 11.776 111.186 11.776H108.906L108.282 17.032C108.234 17.416 108.202 17.76 108.186 18.064C108.17 18.368 108.162 18.648 108.162 18.904C108.162 19.688 108.226 20.28 108.354 20.68C108.498 21.08 108.57 21.408 108.57 21.664C108.57 21.872 108.41 22.032 108.09 22.144C107.786 22.272 107.522 22.336 107.298 22.336ZM123.945 22.336C122.905 22.336 122.033 22.088 121.329 21.592C120.641 21.096 120.121 20.448 119.769 19.648C119.433 18.832 119.257 17.96 119.241 17.032C119.241 16.216 119.361 15.392 119.601 14.56C119.841 13.712 120.217 12.936 120.729 12.232C121.241 11.512 121.897 10.936 122.697 10.504C123.497 10.056 124.457 9.832 125.577 9.832C126.633 9.832 127.505 10.088 128.193 10.6C128.897 11.096 129.417 11.752 129.753 12.568C130.105 13.384 130.281 14.264 130.281 15.208C130.281 16.488 130.017 17.672 129.489 18.76C128.977 19.832 128.241 20.696 127.281 21.352C126.337 22.008 125.225 22.336 123.945 22.336ZM124.161 20.848C124.993 20.848 125.729 20.6 126.369 20.104C127.009 19.592 127.513 18.928 127.881 18.112C128.249 17.28 128.433 16.384 128.433 15.424C128.433 14.256 128.185 13.28 127.689 12.496C127.209 11.712 126.449 11.32 125.409 11.32C124.689 11.32 124.057 11.488 123.513 11.824C122.985 12.16 122.545 12.6 122.193 13.144C121.841 13.688 121.577 14.28 121.401 14.92C121.241 15.56 121.161 16.184 121.161 16.792C121.161 17.96 121.401 18.928 121.881 19.696C122.361 20.464 123.121 20.848 124.161 20.848ZM135.751 22.336C134.647 22.336 133.839 21.976 133.327 21.256C132.815 20.52 132.559 19.64 132.559 18.616C132.559 18.424 132.583 18.032 132.631 17.44C132.695 16.832 132.791 15.96 132.919 14.824C133.063 13.688 133.247 12.224 133.471 10.432C133.503 10.16 133.615 9.992 133.807 9.928C134.015 9.864 134.263 9.832 134.551 9.832C134.679 9.832 134.831 9.864 135.007 9.928C135.199 9.976 135.295 10.104 135.295 10.312C135.055 12.136 134.839 13.744 134.647 15.136C134.471 16.528 134.383 17.672 134.383 18.568C134.383 18.936 134.431 19.288 134.527 19.624C134.623 19.96 134.807 20.232 135.079 20.44C135.351 20.648 135.743 20.752 136.255 20.752C136.927 20.752 137.495 20.568 137.959 20.2C138.439 19.832 138.831 19.344 139.135 18.736C139.455 18.128 139.703 17.472 139.879 16.768C140.055 16.064 140.183 15.376 140.263 14.704L140.791 10.432C140.823 10.16 140.951 9.992 141.175 9.928C141.399 9.864 141.647 9.832 141.919 9.832C142.143 9.832 142.311 9.864 142.423 9.928C142.551 9.992 142.615 10.12 142.615 10.312L141.775 17.032C141.727 17.416 141.695 17.76 141.679 18.064C141.679 18.368 141.679 18.648 141.679 18.904C141.679 19.688 141.743 20.28 141.871 20.68C142.015 21.08 142.087 21.408 142.087 21.664C142.087 21.872 141.927 22.032 141.607 22.144C141.287 22.272 141.015 22.336 140.791 22.336C140.631 22.336 140.503 22.224 140.407 22C140.327 21.776 140.255 21.504 140.191 21.184C140.143 20.864 140.103 20.552 140.071 20.248C140.055 19.944 140.039 19.712 140.023 19.552C139.591 20.432 139.023 21.12 138.319 21.616C137.615 22.096 136.759 22.336 135.751 22.336ZM145.937 22.336C145.713 22.336 145.545 22.304 145.433 22.24C145.337 22.176 145.289 22.048 145.289 21.856L146.657 10.432C146.689 10.16 146.801 9.992 146.993 9.928C147.201 9.864 147.441 9.832 147.713 9.832C147.937 9.832 148.113 9.872 148.241 9.952C148.385 10.016 148.457 10.136 148.457 10.312L148.217 12.112H148.337C148.785 11.376 149.369 10.784 150.089 10.336C150.809 9.888 151.561 9.664 152.345 9.664C152.649 9.664 152.841 9.712 152.921 9.808C153.001 9.904 153.041 10.024 153.041 10.168C153.041 10.536 152.969 10.808 152.825 10.984C152.697 11.16 152.545 11.28 152.369 11.344C152.193 11.392 152.049 11.416 151.937 11.416C151.121 11.416 150.409 11.704 149.801 12.28C149.193 12.856 148.705 13.592 148.337 14.488C147.985 15.384 147.745 16.328 147.617 17.32L147.065 21.736C147.033 21.992 146.905 22.152 146.681 22.216C146.457 22.296 146.209 22.336 145.937 22.336ZM165.79 22.336C164.11 22.336 162.838 21.864 161.974 20.92C161.11 19.976 160.678 18.664 160.678 16.984C160.678 16.088 160.822 15.216 161.11 14.368C161.398 13.52 161.814 12.752 162.358 12.064C162.902 11.376 163.566 10.832 164.35 10.432C165.15 10.032 166.054 9.832 167.062 9.832C167.702 9.832 168.262 9.92 168.742 10.096C169.222 10.256 169.59 10.448 169.846 10.672C170.118 10.896 170.254 11.096 170.254 11.272C170.254 11.496 170.158 11.72 169.966 11.944C169.79 12.168 169.59 12.28 169.366 12.28C169.27 12.28 169.134 12.2 168.958 12.04C168.798 11.88 168.566 11.72 168.262 11.56C167.958 11.4 167.542 11.32 167.014 11.32C166.214 11.32 165.534 11.488 164.974 11.824C164.43 12.16 163.982 12.608 163.63 13.168C163.294 13.728 163.046 14.344 162.886 15.016C162.726 15.688 162.646 16.36 162.646 17.032C162.646 18.2 162.918 19.128 163.462 19.816C164.006 20.504 164.814 20.848 165.886 20.848C166.446 20.848 166.934 20.744 167.35 20.536C167.782 20.312 168.126 20.096 168.382 19.888C168.654 19.68 168.814 19.576 168.862 19.576C169.038 19.576 169.182 19.704 169.294 19.96C169.422 20.2 169.486 20.432 169.486 20.656C169.486 20.816 169.294 21.032 168.91 21.304C168.526 21.576 168.046 21.816 167.47 22.024C166.91 22.232 166.35 22.336 165.79 22.336ZM172.679 22.336C172.455 22.336 172.287 22.304 172.175 22.24C172.079 22.176 172.031 22.048 172.031 21.856L174.479 1.336C174.511 1.064 174.623 0.895999 174.815 0.831999C175.007 0.751999 175.247 0.711999 175.535 0.711999C175.743 0.711999 175.919 0.751999 176.063 0.831999C176.207 0.911999 176.279 1.04 176.279 1.216L173.807 21.736C173.775 21.992 173.647 22.152 173.423 22.216C173.199 22.296 172.951 22.336 172.679 22.336ZM182.018 5.392C182.018 5.76 181.93 6.104 181.754 6.424C181.578 6.728 181.21 6.88 180.65 6.88C180.234 6.88 179.946 6.792 179.786 6.616C179.642 6.44 179.57 6.224 179.57 5.968C179.57 5.6 179.658 5.264 179.834 4.96C180.026 4.656 180.394 4.504 180.938 4.504C181.354 4.504 181.634 4.592 181.778 4.768C181.938 4.928 182.018 5.136 182.018 5.392ZM178.538 22.336C178.314 22.336 178.146 22.304 178.034 22.24C177.938 22.176 177.89 22.048 177.89 21.856L179.258 10.432C179.29 10.16 179.402 9.992 179.594 9.928C179.802 9.864 180.042 9.832 180.314 9.832C180.538 9.832 180.714 9.872 180.842 9.952C180.986 10.016 181.058 10.136 181.058 10.312L179.666 21.736C179.634 21.992 179.506 22.152 179.282 22.216C179.058 22.296 178.81 22.336 178.538 22.336ZM188.478 22.336C186.798 22.336 185.526 21.872 184.662 20.944C183.798 20.016 183.366 18.712 183.366 17.032C183.366 15.8 183.574 14.736 183.99 13.84C184.422 12.928 184.974 12.176 185.646 11.584C186.318 10.992 187.03 10.552 187.782 10.264C188.534 9.976 189.246 9.832 189.918 9.832C190.766 9.832 191.478 10.04 192.054 10.456C192.63 10.872 192.918 11.48 192.918 12.28C192.918 13.224 192.574 14.056 191.886 14.776C191.198 15.496 190.278 16.056 189.126 16.456C187.99 16.856 186.718 17.056 185.31 17.056C185.31 18.224 185.582 19.152 186.126 19.84C186.686 20.512 187.502 20.848 188.574 20.848C189.134 20.848 189.622 20.744 190.038 20.536C190.47 20.312 190.814 20.096 191.07 19.888C191.342 19.68 191.494 19.576 191.526 19.576C191.718 19.576 191.87 19.704 191.982 19.96C192.11 20.2 192.174 20.432 192.174 20.656C192.174 20.816 191.982 21.032 191.598 21.304C191.214 21.576 190.734 21.816 190.158 22.024C189.598 22.232 189.038 22.336 188.478 22.336ZM185.406 15.64C186.11 15.64 186.806 15.568 187.494 15.424C188.182 15.264 188.798 15.048 189.342 14.776C189.902 14.504 190.342 14.176 190.662 13.792C190.998 13.408 191.166 12.984 191.166 12.52C191.166 12.104 191.038 11.792 190.782 11.584C190.526 11.376 190.206 11.272 189.822 11.272C189.326 11.272 188.766 11.44 188.142 11.776C187.518 12.096 186.942 12.576 186.414 13.216C185.902 13.856 185.566 14.664 185.406 15.64ZM195.46 22.336C195.236 22.336 195.068 22.304 194.956 22.24C194.86 22.176 194.812 22.048 194.812 21.856L196.18 10.432C196.212 10.16 196.324 9.992 196.516 9.928C196.724 9.864 196.964 9.832 197.236 9.832C197.46 9.832 197.636 9.872 197.764 9.952C197.908 10.016 197.98 10.136 197.98 10.312L197.764 11.992H197.908C198.388 11.288 198.932 10.752 199.54 10.384C200.148 10.016 200.868 9.832 201.7 9.832C202.948 9.832 203.884 10.12 204.508 10.696C205.148 11.272 205.468 12.048 205.468 13.024C205.468 13.072 205.46 13.152 205.444 13.264C205.444 13.376 205.42 13.584 205.372 13.888C205.34 14.176 205.284 14.624 205.204 15.232C205.124 15.84 205.012 16.672 204.868 17.728C204.74 18.768 204.572 20.104 204.364 21.736C204.332 21.992 204.196 22.152 203.956 22.216C203.716 22.296 203.46 22.336 203.188 22.336C202.98 22.336 202.82 22.304 202.708 22.24C202.612 22.176 202.564 22.048 202.564 21.856L203.572 13.528C203.604 13.368 203.62 13.248 203.62 13.168C203.62 12 202.9 11.416 201.46 11.416C200.644 11.416 199.94 11.672 199.348 12.184C198.756 12.696 198.276 13.4 197.908 14.296C197.54 15.176 197.284 16.184 197.14 17.32L196.588 21.736C196.556 21.992 196.428 22.152 196.204 22.216C195.98 22.296 195.732 22.336 195.46 22.336ZM210.516 22.336C210.324 22.336 210.156 22.184 210.012 21.88C209.884 21.576 209.78 21.184 209.7 20.704C209.636 20.208 209.604 19.68 209.604 19.12C209.604 18.784 209.62 18.408 209.652 17.992C209.7 17.576 209.732 17.256 209.748 17.032L210.372 11.776H209.004C208.652 11.776 208.476 11.544 208.476 11.08C208.476 10.872 208.54 10.672 208.668 10.48C208.796 10.272 208.964 10.168 209.172 10.168H210.588L211.02 6.472C211.052 6.2 211.212 6 211.5 5.872C211.788 5.744 212.068 5.68 212.34 5.68C212.564 5.68 212.7 5.696 212.748 5.728C212.812 5.76 212.844 5.84 212.844 5.968L212.34 10.168H214.572C214.94 10.168 215.124 10.408 215.124 10.888C215.124 11.08 215.052 11.28 214.908 11.488C214.78 11.68 214.612 11.776 214.404 11.776H212.124L211.5 17.032C211.452 17.416 211.42 17.76 211.404 18.064C211.388 18.368 211.38 18.648 211.38 18.904C211.38 19.688 211.444 20.28 211.572 20.68C211.716 21.08 211.788 21.408 211.788 21.664C211.788 21.872 211.628 22.032 211.308 22.144C211.004 22.272 210.74 22.336 210.516 22.336ZM218.781 22.336C218.141 22.336 217.541 22.248 216.981 22.072C216.421 21.896 215.965 21.688 215.613 21.448C215.261 21.208 215.085 21.008 215.085 20.848C215.085 20.624 215.141 20.384 215.253 20.128C215.365 19.856 215.541 19.72 215.781 19.72C215.829 19.72 215.973 19.816 216.213 20.008C216.453 20.184 216.781 20.368 217.197 20.56C217.629 20.752 218.133 20.848 218.709 20.848C218.997 20.848 219.293 20.8 219.597 20.704C219.917 20.608 220.189 20.448 220.413 20.224C220.637 19.984 220.749 19.672 220.749 19.288C220.749 18.792 220.597 18.36 220.293 17.992C220.005 17.608 219.645 17.248 219.213 16.912C218.781 16.576 218.349 16.232 217.917 15.88C217.485 15.528 217.117 15.128 216.813 14.68C216.525 14.216 216.381 13.68 216.381 13.072C216.381 12.512 216.525 11.984 216.813 11.488C217.101 10.992 217.501 10.592 218.013 10.288C218.541 9.984 219.141 9.832 219.813 9.832C220.661 9.832 221.341 9.952 221.853 10.192C222.381 10.416 222.645 10.664 222.645 10.936C222.645 11.144 222.589 11.376 222.477 11.632C222.381 11.888 222.221 12.016 221.997 12.016C221.949 12.016 221.845 11.96 221.685 11.848C221.525 11.72 221.293 11.6 220.989 11.488C220.685 11.376 220.301 11.32 219.837 11.32C219.309 11.32 218.885 11.464 218.565 11.752C218.261 12.024 218.109 12.408 218.109 12.904C218.109 13.336 218.261 13.736 218.565 14.104C218.869 14.456 219.237 14.808 219.669 15.16C220.117 15.496 220.557 15.856 220.989 16.24C221.437 16.608 221.813 17.024 222.117 17.488C222.421 17.936 222.573 18.464 222.573 19.072C222.573 19.584 222.429 20.096 222.141 20.608C221.869 21.104 221.453 21.52 220.893 21.856C220.333 22.176 219.629 22.336 218.781 22.336ZM232.421 22.336C232.197 22.336 232.029 22.304 231.917 22.24C231.821 22.176 231.773 22.048 231.773 21.856L234.221 1.336C234.253 1.064 234.365 0.895999 234.557 0.831999C234.749 0.751999 234.989 0.711999 235.277 0.711999C235.485 0.711999 235.661 0.751999 235.805 0.831999C235.949 0.911999 236.021 1.04 236.021 1.216L234.773 12.016C235.253 11.328 235.813 10.792 236.453 10.408C237.093 10.024 237.829 9.832 238.661 9.832C239.909 9.832 240.845 10.12 241.469 10.696C242.109 11.272 242.429 12.048 242.429 13.024C242.429 13.072 242.421 13.152 242.405 13.264C242.405 13.376 242.381 13.584 242.333 13.888C242.301 14.176 242.245 14.624 242.165 15.232C242.085 15.84 241.973 16.672 241.829 17.728C241.701 18.768 241.533 20.104 241.325 21.736C241.293 21.992 241.157 22.152 240.917 22.216C240.677 22.296 240.421 22.336 240.149 22.336C239.941 22.336 239.781 22.304 239.669 22.24C239.573 22.176 239.525 22.048 239.525 21.856L240.533 13.528C240.565 13.368 240.581 13.248 240.581 13.168C240.581 12 239.861 11.416 238.421 11.416C237.605 11.416 236.901 11.672 236.309 12.184C235.717 12.696 235.237 13.4 234.869 14.296C234.501 15.176 234.245 16.184 234.101 17.32L233.549 21.736C233.517 21.992 233.389 22.152 233.165 22.216C232.941 22.296 232.693 22.336 232.421 22.336ZM247.765 22.336C246.933 22.336 246.213 22.096 245.605 21.616C244.997 21.12 244.693 20.384 244.693 19.408C244.693 18.624 244.925 17.88 245.389 17.176C245.869 16.456 246.677 15.848 247.813 15.352C248.965 14.856 250.549 14.544 252.565 14.416C252.613 14.128 252.645 13.856 252.661 13.6C252.677 13.328 252.685 13.104 252.685 12.928C252.685 12.352 252.469 11.96 252.037 11.752C251.605 11.544 251.085 11.44 250.477 11.44C249.869 11.44 249.333 11.52 248.869 11.68C248.405 11.824 248.021 11.976 247.717 12.136C247.413 12.28 247.189 12.352 247.045 12.352C246.821 12.352 246.645 12.216 246.517 11.944C246.405 11.672 246.349 11.432 246.349 11.224C246.349 11.08 246.485 10.928 246.757 10.768C247.045 10.608 247.405 10.456 247.837 10.312C248.285 10.168 248.749 10.056 249.229 9.976C249.709 9.88 250.149 9.832 250.549 9.832C251.221 9.832 251.861 9.92 252.469 10.096C253.077 10.256 253.573 10.536 253.957 10.936C254.341 11.336 254.533 11.888 254.533 12.592C254.533 13.088 254.461 13.744 254.317 14.56C254.173 15.36 254.021 16.208 253.861 17.104C253.717 18 253.645 18.848 253.645 19.648C253.645 20.192 253.685 20.608 253.765 20.896C253.861 21.184 253.909 21.44 253.909 21.664C253.909 21.808 253.821 21.928 253.645 22.024C253.485 22.12 253.293 22.192 253.069 22.24C252.861 22.304 252.677 22.336 252.517 22.336C252.373 22.336 252.261 22.216 252.181 21.976C252.101 21.736 252.045 21.448 252.013 21.112C251.997 20.776 251.989 20.464 251.989 20.176V19.552C251.493 20.512 250.853 21.216 250.069 21.664C249.285 22.112 248.517 22.336 247.765 22.336ZM248.389 20.752C248.933 20.752 249.421 20.608 249.853 20.32C250.285 20.016 250.661 19.624 250.981 19.144C251.317 18.648 251.589 18.112 251.797 17.536C252.005 16.96 252.157 16.4 252.253 15.856C250.813 15.968 249.677 16.176 248.845 16.48C248.029 16.768 247.445 17.128 247.093 17.56C246.757 17.992 246.589 18.488 246.589 19.048C246.589 19.512 246.749 19.912 247.069 20.248C247.389 20.584 247.829 20.752 248.389 20.752ZM259.525 22.336C259.221 22.336 259.005 22.248 258.877 22.072C258.749 21.912 258.677 21.696 258.661 21.424L257.149 10.384C257.149 10.144 257.237 9.992 257.413 9.928C257.589 9.864 257.781 9.832 257.989 9.832C258.357 9.832 258.597 9.896 258.709 10.024C258.821 10.152 258.901 10.392 258.949 10.744L260.293 20.56C260.629 20.352 261.021 20.048 261.469 19.648C261.917 19.248 262.373 18.688 262.837 17.968C263.301 17.248 263.717 16.32 264.085 15.184C264.469 14.032 264.757 12.608 264.949 10.912C264.949 10.4 265.029 10.096 265.189 10C265.349 9.888 265.557 9.832 265.813 9.832C266.149 9.832 266.357 9.896 266.437 10.024C266.533 10.152 266.581 10.448 266.581 10.912C266.581 11.92 266.437 12.96 266.149 14.032C265.861 15.104 265.469 16.136 264.973 17.128C264.493 18.104 263.949 18.984 263.341 19.768C262.733 20.552 262.101 21.176 261.445 21.64C260.789 22.104 260.149 22.336 259.525 22.336ZM273.439 22.336C271.759 22.336 270.487 21.872 269.623 20.944C268.759 20.016 268.327 18.712 268.327 17.032C268.327 15.8 268.535 14.736 268.951 13.84C269.383 12.928 269.935 12.176 270.607 11.584C271.279 10.992 271.991 10.552 272.743 10.264C273.495 9.976 274.207 9.832 274.879 9.832C275.727 9.832 276.439 10.04 277.015 10.456C277.591 10.872 277.879 11.48 277.879 12.28C277.879 13.224 277.535 14.056 276.847 14.776C276.159 15.496 275.239 16.056 274.087 16.456C272.951 16.856 271.679 17.056 270.271 17.056C270.271 18.224 270.543 19.152 271.087 19.84C271.647 20.512 272.463 20.848 273.535 20.848C274.095 20.848 274.583 20.744 274.999 20.536C275.431 20.312 275.775 20.096 276.031 19.888C276.303 19.68 276.455 19.576 276.487 19.576C276.679 19.576 276.831 19.704 276.943 19.96C277.071 20.2 277.135 20.432 277.135 20.656C277.135 20.816 276.943 21.032 276.559 21.304C276.175 21.576 275.695 21.816 275.119 22.024C274.559 22.232 273.999 22.336 273.439 22.336ZM270.367 15.64C271.071 15.64 271.767 15.568 272.455 15.424C273.143 15.264 273.759 15.048 274.303 14.776C274.863 14.504 275.303 14.176 275.623 13.792C275.959 13.408 276.127 12.984 276.127 12.52C276.127 12.104 275.999 11.792 275.743 11.584C275.487 11.376 275.167 11.272 274.783 11.272C274.287 11.272 273.727 11.44 273.103 11.776C272.479 12.096 271.903 12.576 271.375 13.216C270.863 13.856 270.527 14.664 270.367 15.64ZM288.54 22.336C288.348 22.336 288.18 22.184 288.036 21.88C287.908 21.576 287.804 21.184 287.724 20.704C287.66 20.208 287.628 19.68 287.628 19.12C287.628 18.784 287.644 18.408 287.676 17.992C287.724 17.576 287.756 17.256 287.772 17.032L288.396 11.776H287.028C286.676 11.776 286.5 11.544 286.5 11.08C286.5 10.872 286.564 10.672 286.692 10.48C286.82 10.272 286.988 10.168 287.196 10.168H288.612L289.044 6.472C289.076 6.2 289.236 6 289.524 5.872C289.812 5.744 290.092 5.68 290.364 5.68C290.588 5.68 290.724 5.696 290.772 5.728C290.836 5.76 290.868 5.84 290.868 5.968L290.364 10.168H292.596C292.964 10.168 293.148 10.408 293.148 10.888C293.148 11.08 293.076 11.28 292.932 11.488C292.804 11.68 292.636 11.776 292.428 11.776H290.148L289.524 17.032C289.476 17.416 289.444 17.76 289.428 18.064C289.412 18.368 289.404 18.648 289.404 18.904C289.404 19.688 289.468 20.28 289.596 20.68C289.74 21.08 289.812 21.408 289.812 21.664C289.812 21.872 289.652 22.032 289.332 22.144C289.028 22.272 288.764 22.336 288.54 22.336ZM298.46 22.336C297.42 22.336 296.548 22.088 295.844 21.592C295.156 21.096 294.636 20.448 294.284 19.648C293.948 18.832 293.772 17.96 293.756 17.032C293.756 16.216 293.876 15.392 294.116 14.56C294.356 13.712 294.732 12.936 295.244 12.232C295.756 11.512 296.412 10.936 297.212 10.504C298.012 10.056 298.972 9.832 300.092 9.832C301.148 9.832 302.02 10.088 302.708 10.6C303.412 11.096 303.932 11.752 304.268 12.568C304.62 13.384 304.796 14.264 304.796 15.208C304.796 16.488 304.532 17.672 304.004 18.76C303.492 19.832 302.756 20.696 301.796 21.352C300.852 22.008 299.74 22.336 298.46 22.336ZM298.676 20.848C299.508 20.848 300.244 20.6 300.884 20.104C301.524 19.592 302.028 18.928 302.396 18.112C302.764 17.28 302.948 16.384 302.948 15.424C302.948 14.256 302.7 13.28 302.204 12.496C301.724 11.712 300.964 11.32 299.924 11.32C299.204 11.32 298.572 11.488 298.028 11.824C297.5 12.16 297.06 12.6 296.708 13.144C296.356 13.688 296.092 14.28 295.916 14.92C295.756 15.56 295.676 16.184 295.676 16.792C295.676 17.96 295.916 18.928 296.396 19.696C296.876 20.464 297.636 20.848 298.676 20.848ZM316.609 22.336C315.969 22.336 315.369 22.248 314.809 22.072C314.249 21.896 313.793 21.688 313.441 21.448C313.089 21.208 312.913 21.008 312.913 20.848C312.913 20.624 312.969 20.384 313.081 20.128C313.193 19.856 313.369 19.72 313.609 19.72C313.657 19.72 313.801 19.816 314.041 20.008C314.281 20.184 314.609 20.368 315.025 20.56C315.457 20.752 315.961 20.848 316.537 20.848C316.825 20.848 317.121 20.8 317.425 20.704C317.745 20.608 318.017 20.448 318.241 20.224C318.465 19.984 318.577 19.672 318.577 19.288C318.577 18.792 318.425 18.36 318.121 17.992C317.833 17.608 317.473 17.248 317.041 16.912C316.609 16.576 316.177 16.232 315.745 15.88C315.313 15.528 314.945 15.128 314.641 14.68C314.353 14.216 314.209 13.68 314.209 13.072C314.209 12.512 314.353 11.984 314.641 11.488C314.929 10.992 315.329 10.592 315.841 10.288C316.369 9.984 316.969 9.832 317.641 9.832C318.489 9.832 319.169 9.952 319.681 10.192C320.209 10.416 320.473 10.664 320.473 10.936C320.473 11.144 320.417 11.376 320.305 11.632C320.209 11.888 320.049 12.016 319.825 12.016C319.777 12.016 319.673 11.96 319.513 11.848C319.353 11.72 319.121 11.6 318.817 11.488C318.513 11.376 318.129 11.32 317.665 11.32C317.137 11.32 316.713 11.464 316.393 11.752C316.089 12.024 315.937 12.408 315.937 12.904C315.937 13.336 316.089 13.736 316.393 14.104C316.697 14.456 317.065 14.808 317.497 15.16C317.945 15.496 318.385 15.856 318.817 16.24C319.265 16.608 319.641 17.024 319.945 17.488C320.249 17.936 320.401 18.464 320.401 19.072C320.401 19.584 320.257 20.096 319.969 20.608C319.697 21.104 319.281 21.52 318.721 21.856C318.161 22.176 317.457 22.336 316.609 22.336ZM325.203 22.336C324.371 22.336 323.651 22.096 323.043 21.616C322.435 21.12 322.131 20.384 322.131 19.408C322.131 18.624 322.363 17.88 322.827 17.176C323.307 16.456 324.115 15.848 325.251 15.352C326.403 14.856 327.987 14.544 330.003 14.416C330.051 14.128 330.083 13.856 330.099 13.6C330.115 13.328 330.123 13.104 330.123 12.928C330.123 12.352 329.907 11.96 329.475 11.752C329.043 11.544 328.523 11.44 327.915 11.44C327.307 11.44 326.771 11.52 326.307 11.68C325.843 11.824 325.459 11.976 325.155 12.136C324.851 12.28 324.627 12.352 324.483 12.352C324.259 12.352 324.083 12.216 323.955 11.944C323.843 11.672 323.787 11.432 323.787 11.224C323.787 11.08 323.923 10.928 324.195 10.768C324.483 10.608 324.843 10.456 325.275 10.312C325.723 10.168 326.187 10.056 326.667 9.976C327.147 9.88 327.587 9.832 327.987 9.832C328.659 9.832 329.299 9.92 329.907 10.096C330.515 10.256 331.011 10.536 331.395 10.936C331.779 11.336 331.971 11.888 331.971 12.592C331.971 13.088 331.899 13.744 331.755 14.56C331.611 15.36 331.459 16.208 331.299 17.104C331.155 18 331.083 18.848 331.083 19.648C331.083 20.192 331.123 20.608 331.203 20.896C331.299 21.184 331.347 21.44 331.347 21.664C331.347 21.808 331.259 21.928 331.083 22.024C330.923 22.12 330.731 22.192 330.507 22.24C330.299 22.304 330.115 22.336 329.955 22.336C329.811 22.336 329.699 22.216 329.619 21.976C329.539 21.736 329.483 21.448 329.451 21.112C329.435 20.776 329.427 20.464 329.427 20.176V19.552C328.931 20.512 328.291 21.216 327.507 21.664C326.723 22.112 325.955 22.336 325.203 22.336ZM325.827 20.752C326.371 20.752 326.859 20.608 327.291 20.32C327.723 20.016 328.099 19.624 328.419 19.144C328.755 18.648 329.027 18.112 329.235 17.536C329.443 16.96 329.595 16.4 329.691 15.856C328.251 15.968 327.115 16.176 326.283 16.48C325.467 16.768 324.883 17.128 324.531 17.56C324.195 17.992 324.027 18.488 324.027 19.048C324.027 19.512 324.187 19.912 324.507 20.248C324.827 20.584 325.267 20.752 325.827 20.752ZM335.282 30.232C334.658 30.232 334.066 30.144 333.506 29.968C332.962 29.792 332.522 29.584 332.186 29.344C331.834 29.104 331.658 28.904 331.658 28.744C331.658 28.52 331.77 28.272 331.994 28C332.218 27.744 332.434 27.616 332.642 27.616C332.69 27.616 332.81 27.696 333.002 27.856C333.194 28.032 333.482 28.2 333.866 28.36C334.25 28.536 334.738 28.624 335.33 28.624C335.906 28.624 336.418 28.52 336.866 28.312C337.33 28.12 337.754 27.728 338.138 27.136C338.522 26.56 338.898 25.704 339.266 24.568C339.65 23.448 340.05 21.968 340.466 20.128C339.97 20.72 339.434 21.24 338.858 21.688C338.282 22.12 337.73 22.336 337.202 22.336C336.898 22.336 336.682 22.248 336.554 22.072C336.442 21.912 336.37 21.696 336.338 21.424L334.826 10.384C334.826 10.144 334.914 9.992 335.09 9.928C335.266 9.864 335.458 9.832 335.666 9.832C336.034 9.832 336.274 9.896 336.386 10.024C336.498 10.152 336.578 10.392 336.626 10.744L337.97 20.656C338.322 20.544 338.738 20.256 339.218 19.792C339.714 19.312 340.194 18.712 340.658 17.992C341.122 17.272 341.466 16.472 341.69 15.592L343.058 10.432C343.138 10.16 343.298 9.992 343.538 9.928C343.778 9.864 344.034 9.832 344.306 9.832C344.53 9.832 344.674 9.864 344.738 9.928C344.818 9.992 344.858 10.12 344.858 10.312L341.066 24.184C340.778 25.272 340.394 26.272 339.914 27.184C339.434 28.112 338.818 28.848 338.066 29.392C337.314 29.952 336.386 30.232 335.282 30.232ZM355.906 22.336C355.074 22.336 354.354 22.096 353.746 21.616C353.138 21.12 352.834 20.384 352.834 19.408C352.834 18.624 353.066 17.88 353.53 17.176C354.01 16.456 354.818 15.848 355.954 15.352C357.106 14.856 358.69 14.544 360.706 14.416C360.754 14.128 360.786 13.856 360.802 13.6C360.818 13.328 360.826 13.104 360.826 12.928C360.826 12.352 360.61 11.96 360.178 11.752C359.746 11.544 359.226 11.44 358.618 11.44C358.01 11.44 357.474 11.52 357.01 11.68C356.546 11.824 356.162 11.976 355.858 12.136C355.554 12.28 355.33 12.352 355.186 12.352C354.962 12.352 354.786 12.216 354.658 11.944C354.546 11.672 354.49 11.432 354.49 11.224C354.49 11.08 354.626 10.928 354.898 10.768C355.186 10.608 355.546 10.456 355.978 10.312C356.426 10.168 356.89 10.056 357.37 9.976C357.85 9.88 358.29 9.832 358.69 9.832C359.362 9.832 360.002 9.92 360.61 10.096C361.218 10.256 361.714 10.536 362.098 10.936C362.482 11.336 362.674 11.888 362.674 12.592C362.674 13.088 362.602 13.744 362.458 14.56C362.314 15.36 362.162 16.208 362.002 17.104C361.858 18 361.786 18.848 361.786 19.648C361.786 20.192 361.826 20.608 361.906 20.896C362.002 21.184 362.05 21.44 362.05 21.664C362.05 21.808 361.962 21.928 361.786 22.024C361.626 22.12 361.434 22.192 361.21 22.24C361.002 22.304 360.818 22.336 360.658 22.336C360.514 22.336 360.402 22.216 360.322 21.976C360.242 21.736 360.186 21.448 360.154 21.112C360.138 20.776 360.13 20.464 360.13 20.176V19.552C359.634 20.512 358.994 21.216 358.21 21.664C357.426 22.112 356.658 22.336 355.906 22.336ZM356.53 20.752C357.074 20.752 357.562 20.608 357.994 20.32C358.426 20.016 358.802 19.624 359.122 19.144C359.458 18.648 359.73 18.112 359.938 17.536C360.146 16.96 360.298 16.4 360.394 15.856C358.954 15.968 357.818 16.176 356.986 16.48C356.17 16.768 355.586 17.128 355.234 17.56C354.898 17.992 354.73 18.488 354.73 19.048C354.73 19.512 354.89 19.912 355.21 20.248C355.53 20.584 355.97 20.752 356.53 20.752ZM367.977 22.336C367.785 22.336 367.497 22.312 367.113 22.264C366.729 22.232 366.377 22.144 366.057 22C365.753 21.856 365.601 21.624 365.601 21.304L368.049 1.336C368.081 1.032 368.217 0.855999 368.457 0.808C368.697 0.743999 368.913 0.711999 369.105 0.711999C369.281 0.711999 369.449 0.751999 369.609 0.831999C369.769 0.895999 369.849 1.024 369.849 1.216L368.529 11.824C369.073 11.152 369.633 10.656 370.209 10.336C370.801 10 371.529 9.832 372.393 9.832C373.209 9.832 373.897 10.048 374.457 10.48C375.033 10.912 375.465 11.488 375.753 12.208C376.057 12.928 376.209 13.72 376.209 14.584C376.209 15.464 376.049 16.36 375.729 17.272C375.409 18.184 374.913 19.024 374.241 19.792C373.569 20.56 372.713 21.176 371.673 21.64C370.633 22.104 369.401 22.336 367.977 22.336ZM368.457 20.848C369.465 20.848 370.329 20.664 371.049 20.296C371.785 19.928 372.385 19.44 372.849 18.832C373.329 18.224 373.681 17.568 373.905 16.864C374.129 16.144 374.241 15.448 374.241 14.776C374.241 13.864 374.025 13.08 373.593 12.424C373.177 11.752 372.585 11.416 371.817 11.416C371.129 11.416 370.545 11.6 370.065 11.968C369.601 12.336 369.217 12.824 368.913 13.432C368.625 14.024 368.393 14.68 368.217 15.4C368.057 16.104 367.937 16.792 367.857 17.464L367.449 20.8C367.529 20.816 367.697 20.832 367.953 20.848C368.225 20.848 368.393 20.848 368.457 20.848ZM383.117 22.336C382.077 22.336 381.205 22.088 380.501 21.592C379.813 21.096 379.293 20.448 378.941 19.648C378.605 18.832 378.429 17.96 378.413 17.032C378.413 16.216 378.533 15.392 378.773 14.56C379.013 13.712 379.389 12.936 379.901 12.232C380.413 11.512 381.069 10.936 381.869 10.504C382.669 10.056 383.629 9.832 384.749 9.832C385.805 9.832 386.677 10.088 387.365 10.6C388.069 11.096 388.589 11.752 388.925 12.568C389.277 13.384 389.453 14.264 389.453 15.208C389.453 16.488 389.189 17.672 388.661 18.76C388.149 19.832 387.413 20.696 386.453 21.352C385.509 22.008 384.397 22.336 383.117 22.336ZM383.333 20.848C384.165 20.848 384.901 20.6 385.541 20.104C386.181 19.592 386.685 18.928 387.053 18.112C387.421 17.28 387.605 16.384 387.605 15.424C387.605 14.256 387.357 13.28 386.861 12.496C386.381 11.712 385.621 11.32 384.581 11.32C383.861 11.32 383.229 11.488 382.685 11.824C382.157 12.16 381.717 12.6 381.365 13.144C381.013 13.688 380.749 14.28 380.573 14.92C380.413 15.56 380.333 16.184 380.333 16.792C380.333 17.96 380.573 18.928 381.053 19.696C381.533 20.464 382.293 20.848 383.333 20.848ZM394.923 22.336C393.819 22.336 393.011 21.976 392.499 21.256C391.987 20.52 391.731 19.64 391.731 18.616C391.731 18.424 391.755 18.032 391.803 17.44C391.867 16.832 391.963 15.96 392.091 14.824C392.235 13.688 392.419 12.224 392.643 10.432C392.675 10.16 392.787 9.992 392.979 9.928C393.187 9.864 393.435 9.832 393.723 9.832C393.851 9.832 394.003 9.864 394.179 9.928C394.371 9.976 394.467 10.104 394.467 10.312C394.227 12.136 394.011 13.744 393.819 15.136C393.643 16.528 393.555 17.672 393.555 18.568C393.555 18.936 393.603 19.288 393.699 19.624C393.795 19.96 393.979 20.232 394.251 20.44C394.523 20.648 394.915 20.752 395.427 20.752C396.099 20.752 396.667 20.568 397.131 20.2C397.611 19.832 398.003 19.344 398.307 18.736C398.627 18.128 398.875 17.472 399.051 16.768C399.227 16.064 399.355 15.376 399.435 14.704L399.963 10.432C399.995 10.16 400.123 9.992 400.347 9.928C400.571 9.864 400.819 9.832 401.091 9.832C401.315 9.832 401.483 9.864 401.595 9.928C401.723 9.992 401.787 10.12 401.787 10.312L400.947 17.032C400.899 17.416 400.867 17.76 400.851 18.064C400.851 18.368 400.851 18.648 400.851 18.904C400.851 19.688 400.915 20.28 401.043 20.68C401.187 21.08 401.259 21.408 401.259 21.664C401.259 21.872 401.099 22.032 400.779 22.144C400.459 22.272 400.187 22.336 399.963 22.336C399.803 22.336 399.675 22.224 399.579 22C399.499 21.776 399.427 21.504 399.363 21.184C399.315 20.864 399.275 20.552 399.243 20.248C399.227 19.944 399.211 19.712 399.195 19.552C398.763 20.432 398.195 21.12 397.491 21.616C396.787 22.096 395.931 22.336 394.923 22.336ZM406.501 22.336C406.309 22.336 406.141 22.184 405.997 21.88C405.869 21.576 405.765 21.184 405.685 20.704C405.621 20.208 405.589 19.68 405.589 19.12C405.589 18.784 405.605 18.408 405.637 17.992C405.685 17.576 405.717 17.256 405.733 17.032L406.357 11.776H404.989C404.637 11.776 404.461 11.544 404.461 11.08C404.461 10.872 404.525 10.672 404.653 10.48C404.781 10.272 404.949 10.168 405.157 10.168H406.573L407.005 6.472C407.037 6.2 407.197 6 407.485 5.872C407.773 5.744 408.053 5.68 408.325 5.68C408.549 5.68 408.685 5.696 408.733 5.728C408.797 5.76 408.829 5.84 408.829 5.968L408.325 10.168H410.557C410.925 10.168 411.109 10.408 411.109 10.888C411.109 11.08 411.037 11.28 410.893 11.488C410.765 11.68 410.597 11.776 410.389 11.776H408.109L407.485 17.032C407.437 17.416 407.405 17.76 407.389 18.064C407.373 18.368 407.365 18.648 407.365 18.904C407.365 19.688 407.429 20.28 407.557 20.68C407.701 21.08 407.773 21.408 407.773 21.664C407.773 21.872 407.613 22.032 407.293 22.144C406.989 22.272 406.725 22.336 406.501 22.336ZM77.2155 47.336C77.0235 47.336 76.8555 47.184 76.7115 46.88C76.5835 46.576 76.4795 46.184 76.3995 45.704C76.3355 45.208 76.3035 44.68 76.3035 44.12C76.3035 43.784 76.3195 43.408 76.3515 42.992C76.3995 42.576 76.4315 42.256 76.4475 42.032L77.0715 36.776H75.7035C75.3515 36.776 75.1755 36.544 75.1755 36.08C75.1755 35.872 75.2395 35.672 75.3675 35.48C75.4955 35.272 75.6635 35.168 75.8715 35.168H77.2875L77.7195 31.472C77.7515 31.2 77.9115 31 78.1995 30.872C78.4875 30.744 78.7675 30.68 79.0395 30.68C79.2635 30.68 79.3995 30.696 79.4475 30.728C79.5115 30.76 79.5435 30.84 79.5435 30.968L79.0395 35.168H81.2715C81.6395 35.168 81.8235 35.408 81.8235 35.888C81.8235 36.08 81.7515 36.28 81.6075 36.488C81.4795 36.68 81.3115 36.776 81.1035 36.776H78.8235L78.1995 42.032C78.1515 42.416 78.1195 42.76 78.1035 43.064C78.0875 43.368 78.0795 43.648 78.0795 43.904C78.0795 44.688 78.1435 45.28 78.2715 45.68C78.4155 46.08 78.4875 46.408 78.4875 46.664C78.4875 46.872 78.3275 47.032 78.0075 47.144C77.7035 47.272 77.4395 47.336 77.2155 47.336ZM83.4642 47.336C83.2402 47.336 83.0722 47.304 82.9602 47.24C82.8642 47.176 82.8162 47.048 82.8162 46.856L85.2642 26.336C85.2962 26.064 85.4082 25.896 85.6002 25.832C85.7922 25.752 86.0322 25.712 86.3202 25.712C86.5282 25.712 86.7042 25.752 86.8482 25.832C86.9922 25.912 87.0642 26.04 87.0642 26.216L85.8162 37.016C86.2962 36.328 86.8562 35.792 87.4962 35.408C88.1362 35.024 88.8722 34.832 89.7042 34.832C90.9522 34.832 91.8882 35.12 92.5122 35.696C93.1522 36.272 93.4722 37.048 93.4722 38.024C93.4722 38.072 93.4642 38.152 93.4482 38.264C93.4482 38.376 93.4242 38.584 93.3762 38.888C93.3442 39.176 93.2882 39.624 93.2082 40.232C93.1282 40.84 93.0162 41.672 92.8722 42.728C92.7442 43.768 92.5762 45.104 92.3682 46.736C92.3362 46.992 92.2002 47.152 91.9602 47.216C91.7202 47.296 91.4642 47.336 91.1922 47.336C90.9842 47.336 90.8242 47.304 90.7122 47.24C90.6162 47.176 90.5682 47.048 90.5682 46.856L91.5762 38.528C91.6082 38.368 91.6242 38.248 91.6242 38.168C91.6242 37 90.9042 36.416 89.4642 36.416C88.6482 36.416 87.9442 36.672 87.3522 37.184C86.7602 37.696 86.2802 38.4 85.9122 39.296C85.5442 40.176 85.2882 41.184 85.1442 42.32L84.5922 46.736C84.5602 46.992 84.4322 47.152 84.2082 47.216C83.9842 47.296 83.7362 47.336 83.4642 47.336ZM101.208 47.336C99.5282 47.336 98.2562 46.872 97.3922 45.944C96.5282 45.016 96.0962 43.712 96.0962 42.032C96.0962 40.8 96.3042 39.736 96.7202 38.84C97.1522 37.928 97.7042 37.176 98.3762 36.584C99.0482 35.992 99.7602 35.552 100.512 35.264C101.264 34.976 101.976 34.832 102.648 34.832C103.496 34.832 104.208 35.04 104.784 35.456C105.36 35.872 105.648 36.48 105.648 37.28C105.648 38.224 105.304 39.056 104.616 39.776C103.928 40.496 103.008 41.056 101.856 41.456C100.72 41.856 99.4482 42.056 98.0402 42.056C98.0402 43.224 98.3122 44.152 98.8562 44.84C99.4162 45.512 100.232 45.848 101.304 45.848C101.864 45.848 102.352 45.744 102.768 45.536C103.2 45.312 103.544 45.096 103.8 44.888C104.072 44.68 104.224 44.576 104.256 44.576C104.448 44.576 104.6 44.704 104.712 44.96C104.84 45.2 104.904 45.432 104.904 45.656C104.904 45.816 104.712 46.032 104.328 46.304C103.944 46.576 103.464 46.816 102.888 47.024C102.328 47.232 101.768 47.336 101.208 47.336ZM98.1362 40.64C98.8402 40.64 99.5362 40.568 100.224 40.424C100.912 40.264 101.528 40.048 102.072 39.776C102.632 39.504 103.072 39.176 103.392 38.792C103.728 38.408 103.896 37.984 103.896 37.52C103.896 37.104 103.768 36.792 103.512 36.584C103.256 36.376 102.936 36.272 102.552 36.272C102.056 36.272 101.496 36.44 100.872 36.776C100.248 37.096 99.6722 37.576 99.1442 38.216C98.6322 38.856 98.2962 39.664 98.1362 40.64ZM111.671 30.392C111.671 30.76 111.583 31.104 111.407 31.424C111.231 31.728 110.863 31.88 110.303 31.88C109.887 31.88 109.599 31.792 109.439 31.616C109.295 31.44 109.223 31.224 109.223 30.968C109.223 30.6 109.311 30.264 109.487 29.96C109.679 29.656 110.047 29.504 110.591 29.504C111.007 29.504 111.287 29.592 111.431 29.768C111.591 29.928 111.671 30.136 111.671 30.392ZM108.191 47.336C107.967 47.336 107.799 47.304 107.687 47.24C107.591 47.176 107.543 47.048 107.543 46.856L108.911 35.432C108.943 35.16 109.055 34.992 109.247 34.928C109.455 34.864 109.695 34.832 109.967 34.832C110.191 34.832 110.367 34.872 110.495 34.952C110.639 35.016 110.711 35.136 110.711 35.312L109.319 46.736C109.287 46.992 109.159 47.152 108.935 47.216C108.711 47.296 108.463 47.336 108.191 47.336ZM114.05 47.336C113.826 47.336 113.658 47.304 113.546 47.24C113.45 47.176 113.402 47.048 113.402 46.856L114.77 35.432C114.802 35.16 114.914 34.992 115.106 34.928C115.314 34.864 115.554 34.832 115.826 34.832C116.05 34.832 116.226 34.872 116.354 34.952C116.498 35.016 116.57 35.136 116.57 35.312L116.33 37.112H116.45C116.898 36.376 117.482 35.784 118.202 35.336C118.922 34.888 119.674 34.664 120.458 34.664C120.762 34.664 120.954 34.712 121.034 34.808C121.114 34.904 121.154 35.024 121.154 35.168C121.154 35.536 121.082 35.808 120.938 35.984C120.81 36.16 120.658 36.28 120.482 36.344C120.306 36.392 120.162 36.416 120.05 36.416C119.234 36.416 118.522 36.704 117.914 37.28C117.306 37.856 116.818 38.592 116.45 39.488C116.098 40.384 115.858 41.328 115.73 42.32L115.178 46.736C115.146 46.992 115.018 47.152 114.794 47.216C114.57 47.296 114.322 47.336 114.05 47.336ZM132.272 47.336C131.632 47.336 131.024 47.184 130.448 46.88C129.888 46.576 129.424 46.104 129.056 45.464C128.704 44.824 128.528 44 128.528 42.992C128.528 42.352 128.608 41.664 128.768 40.928C128.944 40.176 129.232 39.44 129.632 38.72C130.032 38 130.568 37.352 131.24 36.776C131.928 36.184 132.776 35.712 133.784 35.36C134.792 35.008 135.992 34.832 137.384 34.832L138.464 26.264C138.48 26.04 138.6 25.896 138.824 25.832C139.048 25.752 139.296 25.712 139.568 25.712C140.016 25.712 140.24 25.896 140.24 26.264L138.32 42.032C138.288 42.416 138.264 42.76 138.248 43.064C138.232 43.368 138.224 43.648 138.224 43.904C138.224 44.688 138.296 45.28 138.44 45.68C138.584 46.08 138.656 46.408 138.656 46.664C138.656 46.808 138.576 46.928 138.416 47.024C138.256 47.12 138.072 47.192 137.864 47.24C137.656 47.304 137.48 47.336 137.336 47.336C137.176 47.336 137.048 47.224 136.952 47C136.872 46.776 136.808 46.504 136.76 46.184C136.712 45.864 136.672 45.552 136.64 45.248C136.624 44.944 136.6 44.712 136.568 44.552C136.184 45.432 135.584 46.12 134.768 46.616C133.952 47.096 133.12 47.336 132.272 47.336ZM132.848 45.752C133.552 45.752 134.136 45.568 134.6 45.2C135.064 44.832 135.44 44.352 135.728 43.76C136.032 43.152 136.264 42.496 136.424 41.792C136.6 41.088 136.728 40.392 136.808 39.704L137.216 36.392C137.152 36.36 137.048 36.344 136.904 36.344C136.76 36.328 136.672 36.32 136.64 36.32C135.456 36.32 134.4 36.616 133.472 37.208C132.544 37.8 131.816 38.584 131.288 39.56C130.76 40.536 130.496 41.608 130.496 42.776C130.496 43.56 130.68 44.256 131.048 44.864C131.432 45.456 132.032 45.752 132.848 45.752ZM142.55 47.336C142.326 47.336 142.158 47.304 142.046 47.24C141.95 47.176 141.902 47.048 141.902 46.856L143.27 35.432C143.302 35.16 143.414 34.992 143.606 34.928C143.814 34.864 144.054 34.832 144.326 34.832C144.55 34.832 144.726 34.872 144.854 34.952C144.998 35.016 145.07 35.136 145.07 35.312L144.83 37.112H144.95C145.398 36.376 145.982 35.784 146.702 35.336C147.422 34.888 148.174 34.664 148.958 34.664C149.262 34.664 149.454 34.712 149.534 34.808C149.614 34.904 149.654 35.024 149.654 35.168C149.654 35.536 149.582 35.808 149.438 35.984C149.31 36.16 149.158 36.28 148.982 36.344C148.806 36.392 148.662 36.416 148.55 36.416C147.734 36.416 147.022 36.704 146.414 37.28C145.806 37.856 145.318 38.592 144.95 39.488C144.598 40.384 144.358 41.328 144.23 42.32L143.678 46.736C143.646 46.992 143.518 47.152 143.294 47.216C143.07 47.296 142.822 47.336 142.55 47.336ZM155.677 47.336C153.997 47.336 152.725 46.872 151.861 45.944C150.997 45.016 150.565 43.712 150.565 42.032C150.565 40.8 150.773 39.736 151.189 38.84C151.621 37.928 152.173 37.176 152.845 36.584C153.517 35.992 154.229 35.552 154.981 35.264C155.733 34.976 156.445 34.832 157.117 34.832C157.965 34.832 158.677 35.04 159.253 35.456C159.829 35.872 160.117 36.48 160.117 37.28C160.117 38.224 159.773 39.056 159.085 39.776C158.397 40.496 157.477 41.056 156.325 41.456C155.189 41.856 153.917 42.056 152.509 42.056C152.509 43.224 152.781 44.152 153.325 44.84C153.885 45.512 154.701 45.848 155.773 45.848C156.333 45.848 156.821 45.744 157.237 45.536C157.669 45.312 158.013 45.096 158.269 44.888C158.541 44.68 158.693 44.576 158.725 44.576C158.917 44.576 159.069 44.704 159.181 44.96C159.309 45.2 159.373 45.432 159.373 45.656C159.373 45.816 159.181 46.032 158.797 46.304C158.413 46.576 157.933 46.816 157.357 47.024C156.797 47.232 156.237 47.336 155.677 47.336ZM152.605 40.64C153.309 40.64 154.005 40.568 154.693 40.424C155.381 40.264 155.997 40.048 156.541 39.776C157.101 39.504 157.541 39.176 157.861 38.792C158.197 38.408 158.365 37.984 158.365 37.52C158.365 37.104 158.237 36.792 157.981 36.584C157.725 36.376 157.405 36.272 157.021 36.272C156.525 36.272 155.965 36.44 155.341 36.776C154.717 37.096 154.141 37.576 153.613 38.216C153.101 38.856 152.765 39.664 152.605 40.64ZM164.339 47.336C163.507 47.336 162.787 47.096 162.179 46.616C161.571 46.12 161.267 45.384 161.267 44.408C161.267 43.624 161.499 42.88 161.963 42.176C162.443 41.456 163.251 40.848 164.387 40.352C165.539 39.856 167.123 39.544 169.139 39.416C169.187 39.128 169.219 38.856 169.235 38.6C169.251 38.328 169.259 38.104 169.259 37.928C169.259 37.352 169.043 36.96 168.611 36.752C168.179 36.544 167.659 36.44 167.051 36.44C166.443 36.44 165.907 36.52 165.443 36.68C164.979 36.824 164.595 36.976 164.291 37.136C163.987 37.28 163.763 37.352 163.619 37.352C163.395 37.352 163.219 37.216 163.091 36.944C162.979 36.672 162.923 36.432 162.923 36.224C162.923 36.08 163.059 35.928 163.331 35.768C163.619 35.608 163.979 35.456 164.411 35.312C164.859 35.168 165.323 35.056 165.803 34.976C166.283 34.88 166.723 34.832 167.123 34.832C167.795 34.832 168.435 34.92 169.043 35.096C169.651 35.256 170.147 35.536 170.531 35.936C170.915 36.336 171.107 36.888 171.107 37.592C171.107 38.088 171.035 38.744 170.891 39.56C170.747 40.36 170.595 41.208 170.435 42.104C170.291 43 170.219 43.848 170.219 44.648C170.219 45.192 170.259 45.608 170.339 45.896C170.435 46.184 170.483 46.44 170.483 46.664C170.483 46.808 170.395 46.928 170.219 47.024C170.059 47.12 169.867 47.192 169.643 47.24C169.435 47.304 169.251 47.336 169.091 47.336C168.947 47.336 168.835 47.216 168.755 46.976C168.675 46.736 168.619 46.448 168.587 46.112C168.571 45.776 168.563 45.464 168.563 45.176V44.552C168.067 45.512 167.427 46.216 166.643 46.664C165.859 47.112 165.091 47.336 164.339 47.336ZM164.963 45.752C165.507 45.752 165.995 45.608 166.427 45.32C166.859 45.016 167.235 44.624 167.555 44.144C167.891 43.648 168.163 43.112 168.371 42.536C168.579 41.96 168.731 41.4 168.827 40.856C167.387 40.968 166.251 41.176 165.419 41.48C164.603 41.768 164.019 42.128 163.667 42.56C163.331 42.992 163.163 43.488 163.163 44.048C163.163 44.512 163.323 44.912 163.643 45.248C163.963 45.584 164.403 45.752 164.963 45.752ZM174.683 47.336C174.459 47.336 174.291 47.304 174.179 47.24C174.083 47.176 174.035 47.048 174.035 46.856L175.403 35.432C175.435 35.16 175.547 34.992 175.739 34.928C175.947 34.864 176.187 34.832 176.459 34.832C176.683 34.832 176.859 34.872 176.987 34.952C177.131 35.016 177.203 35.136 177.203 35.312L176.987 36.992H177.131C177.595 36.384 178.131 35.872 178.739 35.456C179.363 35.04 180.027 34.832 180.731 34.832C181.547 34.832 182.243 35.032 182.819 35.432C183.395 35.816 183.763 36.344 183.923 37.016H184.043C184.507 36.328 185.059 35.792 185.699 35.408C186.339 35.024 187.043 34.832 187.811 34.832C188.835 34.832 189.635 35.12 190.211 35.696C190.803 36.272 191.099 37.048 191.099 38.024C191.099 38.072 191.091 38.152 191.075 38.264C191.075 38.376 191.059 38.584 191.027 38.888C190.995 39.176 190.939 39.624 190.859 40.232C190.779 40.84 190.667 41.672 190.523 42.728C190.395 43.768 190.219 45.104 189.995 46.736C189.963 46.992 189.843 47.152 189.635 47.216C189.427 47.296 189.187 47.336 188.915 47.336C188.707 47.336 188.547 47.304 188.435 47.24C188.339 47.176 188.291 47.048 188.291 46.856L189.299 38.096C189.299 37.712 189.155 37.336 188.867 36.968C188.579 36.6 188.059 36.416 187.307 36.416C186.539 36.416 185.891 36.688 185.363 37.232C184.851 37.76 184.443 38.472 184.139 39.368C183.835 40.264 183.611 41.248 183.467 42.32L182.915 46.736C182.883 46.992 182.747 47.152 182.507 47.216C182.283 47.296 182.035 47.336 181.763 47.336C181.555 47.336 181.395 47.304 181.283 47.24C181.171 47.176 181.115 47.048 181.115 46.856L182.195 38.096C182.195 37.712 182.051 37.336 181.763 36.968C181.491 36.6 180.979 36.416 180.227 36.416C179.459 36.416 178.811 36.688 178.283 37.232C177.755 37.76 177.331 38.472 177.011 39.368C176.707 40.264 176.491 41.248 176.363 42.32L175.811 46.736C175.779 46.992 175.651 47.152 175.427 47.216C175.203 47.296 174.955 47.336 174.683 47.336ZM201.519 47.336C201.295 47.336 201.127 47.304 201.015 47.24C200.919 47.176 200.871 47.048 200.871 46.856L203.319 26.336C203.351 26.064 203.463 25.896 203.655 25.832C203.847 25.752 204.087 25.712 204.375 25.712C204.583 25.712 204.759 25.752 204.903 25.832C205.047 25.912 205.119 26.04 205.119 26.216L203.871 37.016C204.351 36.328 204.911 35.792 205.551 35.408C206.191 35.024 206.927 34.832 207.759 34.832C209.007 34.832 209.943 35.12 210.567 35.696C211.207 36.272 211.527 37.048 211.527 38.024C211.527 38.072 211.519 38.152 211.503 38.264C211.503 38.376 211.479 38.584 211.431 38.888C211.399 39.176 211.343 39.624 211.263 40.232C211.183 40.84 211.071 41.672 210.927 42.728C210.799 43.768 210.631 45.104 210.423 46.736C210.391 46.992 210.255 47.152 210.015 47.216C209.775 47.296 209.519 47.336 209.247 47.336C209.039 47.336 208.879 47.304 208.767 47.24C208.671 47.176 208.623 47.048 208.623 46.856L209.631 38.528C209.663 38.368 209.679 38.248 209.679 38.168C209.679 37 208.959 36.416 207.519 36.416C206.703 36.416 205.999 36.672 205.407 37.184C204.815 37.696 204.335 38.4 203.967 39.296C203.599 40.176 203.343 41.184 203.199 42.32L202.647 46.736C202.615 46.992 202.487 47.152 202.263 47.216C202.039 47.296 201.791 47.336 201.519 47.336ZM218.855 47.336C217.815 47.336 216.943 47.088 216.239 46.592C215.551 46.096 215.031 45.448 214.679 44.648C214.343 43.832 214.167 42.96 214.151 42.032C214.151 41.216 214.271 40.392 214.511 39.56C214.751 38.712 215.127 37.936 215.639 37.232C216.151 36.512 216.807 35.936 217.607 35.504C218.407 35.056 219.367 34.832 220.487 34.832C221.543 34.832 222.415 35.088 223.103 35.6C223.807 36.096 224.327 36.752 224.663 37.568C225.015 38.384 225.191 39.264 225.191 40.208C225.191 41.488 224.927 42.672 224.399 43.76C223.887 44.832 223.151 45.696 222.191 46.352C221.247 47.008 220.135 47.336 218.855 47.336ZM219.071 45.848C219.903 45.848 220.639 45.6 221.279 45.104C221.919 44.592 222.423 43.928 222.791 43.112C223.159 42.28 223.343 41.384 223.343 40.424C223.343 39.256 223.095 38.28 222.599 37.496C222.119 36.712 221.359 36.32 220.319 36.32C219.599 36.32 218.967 36.488 218.423 36.824C217.895 37.16 217.455 37.6 217.103 38.144C216.751 38.688 216.487 39.28 216.311 39.92C216.151 40.56 216.071 41.184 216.071 41.792C216.071 42.96 216.311 43.928 216.791 44.696C217.271 45.464 218.031 45.848 219.071 45.848ZM228.261 47.336C228.037 47.336 227.869 47.304 227.757 47.24C227.661 47.176 227.613 47.048 227.613 46.856L228.981 35.432C229.013 35.16 229.125 34.992 229.317 34.928C229.525 34.864 229.765 34.832 230.037 34.832C230.261 34.832 230.437 34.872 230.565 34.952C230.709 35.016 230.781 35.136 230.781 35.312L230.565 36.992H230.709C231.173 36.384 231.709 35.872 232.317 35.456C232.941 35.04 233.605 34.832 234.309 34.832C235.125 34.832 235.821 35.032 236.397 35.432C236.973 35.816 237.341 36.344 237.501 37.016H237.621C238.085 36.328 238.637 35.792 239.277 35.408C239.917 35.024 240.621 34.832 241.389 34.832C242.413 34.832 243.213 35.12 243.789 35.696C244.381 36.272 244.677 37.048 244.677 38.024C244.677 38.072 244.669 38.152 244.653 38.264C244.653 38.376 244.637 38.584 244.605 38.888C244.573 39.176 244.517 39.624 244.437 40.232C244.357 40.84 244.245 41.672 244.101 42.728C243.973 43.768 243.797 45.104 243.573 46.736C243.541 46.992 243.421 47.152 243.213 47.216C243.005 47.296 242.765 47.336 242.493 47.336C242.285 47.336 242.125 47.304 242.013 47.24C241.917 47.176 241.869 47.048 241.869 46.856L242.877 38.096C242.877 37.712 242.733 37.336 242.445 36.968C242.157 36.6 241.637 36.416 240.885 36.416C240.117 36.416 239.469 36.688 238.941 37.232C238.429 37.76 238.021 38.472 237.717 39.368C237.413 40.264 237.189 41.248 237.045 42.32L236.493 46.736C236.461 46.992 236.325 47.152 236.085 47.216C235.861 47.296 235.613 47.336 235.341 47.336C235.133 47.336 234.973 47.304 234.861 47.24C234.749 47.176 234.693 47.048 234.693 46.856L235.773 38.096C235.773 37.712 235.629 37.336 235.341 36.968C235.069 36.6 234.557 36.416 233.805 36.416C233.037 36.416 232.389 36.688 231.861 37.232C231.333 37.76 230.909 38.472 230.589 39.368C230.285 40.264 230.069 41.248 229.941 42.32L229.389 46.736C229.357 46.992 229.229 47.152 229.005 47.216C228.781 47.296 228.533 47.336 228.261 47.336ZM252.45 47.336C250.77 47.336 249.498 46.872 248.634 45.944C247.77 45.016 247.338 43.712 247.338 42.032C247.338 40.8 247.546 39.736 247.962 38.84C248.394 37.928 248.946 37.176 249.618 36.584C250.29 35.992 251.002 35.552 251.754 35.264C252.506 34.976 253.218 34.832 253.89 34.832C254.738 34.832 255.45 35.04 256.026 35.456C256.602 35.872 256.89 36.48 256.89 37.28C256.89 38.224 256.546 39.056 255.858 39.776C255.17 40.496 254.25 41.056 253.098 41.456C251.962 41.856 250.69 42.056 249.282 42.056C249.282 43.224 249.554 44.152 250.098 44.84C250.658 45.512 251.474 45.848 252.546 45.848C253.106 45.848 253.594 45.744 254.01 45.536C254.442 45.312 254.786 45.096 255.042 44.888C255.314 44.68 255.466 44.576 255.498 44.576C255.69 44.576 255.842 44.704 255.954 44.96C256.082 45.2 256.146 45.432 256.146 45.656C256.146 45.816 255.954 46.032 255.57 46.304C255.186 46.576 254.706 46.816 254.13 47.024C253.57 47.232 253.01 47.336 252.45 47.336ZM249.378 40.64C250.082 40.64 250.778 40.568 251.466 40.424C252.154 40.264 252.77 40.048 253.314 39.776C253.874 39.504 254.314 39.176 254.634 38.792C254.97 38.408 255.138 37.984 255.138 37.52C255.138 37.104 255.01 36.792 254.754 36.584C254.498 36.376 254.178 36.272 253.794 36.272C253.298 36.272 252.738 36.44 252.114 36.776C251.49 37.096 250.914 37.576 250.386 38.216C249.874 38.856 249.538 39.664 249.378 40.64ZM261.449 47.336C260.809 47.336 260.209 47.248 259.649 47.072C259.089 46.896 258.633 46.688 258.281 46.448C257.929 46.208 257.753 46.008 257.753 45.848C257.753 45.624 257.809 45.384 257.921 45.128C258.033 44.856 258.209 44.72 258.449 44.72C258.497 44.72 258.641 44.816 258.881 45.008C259.121 45.184 259.449 45.368 259.865 45.56C260.297 45.752 260.801 45.848 261.377 45.848C261.665 45.848 261.961 45.8 262.265 45.704C262.585 45.608 262.857 45.448 263.081 45.224C263.305 44.984 263.417 44.672 263.417 44.288C263.417 43.792 263.265 43.36 262.961 42.992C262.673 42.608 262.313 42.248 261.881 41.912C261.449 41.576 261.017 41.232 260.585 40.88C260.153 40.528 259.785 40.128 259.481 39.68C259.193 39.216 259.049 38.68 259.049 38.072C259.049 37.512 259.193 36.984 259.481 36.488C259.769 35.992 260.169 35.592 260.681 35.288C261.209 34.984 261.809 34.832 262.481 34.832C263.329 34.832 264.009 34.952 264.521 35.192C265.049 35.416 265.313 35.664 265.313 35.936C265.313 36.144 265.257 36.376 265.145 36.632C265.049 36.888 264.889 37.016 264.665 37.016C264.617 37.016 264.513 36.96 264.353 36.848C264.193 36.72 263.961 36.6 263.657 36.488C263.353 36.376 262.969 36.32 262.505 36.32C261.977 36.32 261.553 36.464 261.233 36.752C260.929 37.024 260.777 37.408 260.777 37.904C260.777 38.336 260.929 38.736 261.233 39.104C261.537 39.456 261.905 39.808 262.337 40.16C262.785 40.496 263.225 40.856 263.657 41.24C264.105 41.608 264.481 42.024 264.785 42.488C265.089 42.936 265.241 43.464 265.241 44.072C265.241 44.584 265.097 45.096 264.809 45.608C264.537 46.104 264.121 46.52 263.561 46.856C263.001 47.176 262.297 47.336 261.449 47.336ZM276.505 47.336C276.201 47.336 275.985 47.248 275.857 47.072C275.729 46.912 275.657 46.696 275.641 46.424L274.129 35.384C274.129 35.144 274.217 34.992 274.393 34.928C274.569 34.864 274.761 34.832 274.969 34.832C275.337 34.832 275.569 34.896 275.665 35.024C275.777 35.152 275.865 35.392 275.929 35.744L277.273 45.56C277.641 45.336 278.073 45 278.569 44.552C279.065 44.088 279.585 43.44 280.129 42.608C280.673 41.776 281.169 40.688 281.617 39.344L281.089 35.384C281.089 35.144 281.169 34.992 281.329 34.928C281.505 34.864 281.705 34.832 281.929 34.832C282.297 34.832 282.529 34.896 282.625 35.024C282.737 35.152 282.825 35.392 282.889 35.744L284.233 45.56C284.569 45.352 284.961 45.048 285.409 44.648C285.857 44.248 286.313 43.688 286.777 42.968C287.241 42.248 287.657 41.32 288.025 40.184C288.409 39.032 288.689 37.608 288.865 35.912C288.865 35.4 288.945 35.096 289.105 35C289.265 34.888 289.481 34.832 289.753 34.832C290.089 34.832 290.297 34.896 290.377 35.024C290.473 35.152 290.521 35.448 290.521 35.912C290.521 36.92 290.377 37.96 290.089 39.032C289.801 40.104 289.409 41.136 288.913 42.128C288.433 43.104 287.889 43.984 287.281 44.768C286.673 45.552 286.041 46.176 285.385 46.64C284.729 47.104 284.089 47.336 283.465 47.336C283.161 47.336 282.945 47.248 282.817 47.072C282.689 46.912 282.617 46.696 282.601 46.424L281.977 42.056C281.497 43.032 280.953 43.92 280.345 44.72C279.737 45.52 279.105 46.16 278.449 46.64C277.793 47.104 277.145 47.336 276.505 47.336ZM296.78 30.392C296.78 30.76 296.692 31.104 296.516 31.424C296.34 31.728 295.972 31.88 295.412 31.88C294.996 31.88 294.708 31.792 294.548 31.616C294.404 31.44 294.332 31.224 294.332 30.968C294.332 30.6 294.42 30.264 294.596 29.96C294.788 29.656 295.156 29.504 295.7 29.504C296.116 29.504 296.396 29.592 296.54 29.768C296.7 29.928 296.78 30.136 296.78 30.392ZM293.3 47.336C293.076 47.336 292.908 47.304 292.796 47.24C292.7 47.176 292.652 47.048 292.652 46.856L294.02 35.432C294.052 35.16 294.164 34.992 294.356 34.928C294.564 34.864 294.804 34.832 295.076 34.832C295.3 34.832 295.476 34.872 295.604 34.952C295.748 35.016 295.82 35.136 295.82 35.312L294.428 46.736C294.396 46.992 294.268 47.152 294.044 47.216C293.82 47.296 293.572 47.336 293.3 47.336ZM300.551 47.336C300.359 47.336 300.191 47.184 300.047 46.88C299.919 46.576 299.815 46.184 299.735 45.704C299.671 45.208 299.639 44.68 299.639 44.12C299.639 43.784 299.655 43.408 299.687 42.992C299.735 42.576 299.767 42.256 299.783 42.032L300.407 36.776H299.039C298.687 36.776 298.511 36.544 298.511 36.08C298.511 35.872 298.575 35.672 298.703 35.48C298.831 35.272 298.999 35.168 299.207 35.168H300.623L301.055 31.472C301.087 31.2 301.247 31 301.535 30.872C301.823 30.744 302.103 30.68 302.375 30.68C302.599 30.68 302.735 30.696 302.783 30.728C302.847 30.76 302.879 30.84 302.879 30.968L302.375 35.168H304.607C304.975 35.168 305.159 35.408 305.159 35.888C305.159 36.08 305.087 36.28 304.943 36.488C304.815 36.68 304.647 36.776 304.439 36.776H302.159L301.535 42.032C301.487 42.416 301.455 42.76 301.439 43.064C301.423 43.368 301.415 43.648 301.415 43.904C301.415 44.688 301.479 45.28 301.607 45.68C301.751 46.08 301.823 46.408 301.823 46.664C301.823 46.872 301.663 47.032 301.343 47.144C301.039 47.272 300.775 47.336 300.551 47.336ZM306.8 47.336C306.576 47.336 306.408 47.304 306.296 47.24C306.2 47.176 306.152 47.048 306.152 46.856L308.6 26.336C308.632 26.064 308.744 25.896 308.936 25.832C309.128 25.752 309.368 25.712 309.656 25.712C309.864 25.712 310.04 25.752 310.184 25.832C310.328 25.912 310.4 26.04 310.4 26.216L309.152 37.016C309.632 36.328 310.192 35.792 310.832 35.408C311.472 35.024 312.208 34.832 313.04 34.832C314.288 34.832 315.224 35.12 315.848 35.696C316.488 36.272 316.808 37.048 316.808 38.024C316.808 38.072 316.8 38.152 316.784 38.264C316.784 38.376 316.76 38.584 316.712 38.888C316.68 39.176 316.624 39.624 316.544 40.232C316.464 40.84 316.352 41.672 316.208 42.728C316.08 43.768 315.912 45.104 315.704 46.736C315.672 46.992 315.536 47.152 315.296 47.216C315.056 47.296 314.8 47.336 314.528 47.336C314.32 47.336 314.16 47.304 314.048 47.24C313.952 47.176 313.904 47.048 313.904 46.856L314.912 38.528C314.944 38.368 314.96 38.248 314.96 38.168C314.96 37 314.24 36.416 312.8 36.416C311.984 36.416 311.28 36.672 310.688 37.184C310.096 37.696 309.616 38.4 309.248 39.296C308.88 40.176 308.624 41.184 308.48 42.32L307.928 46.736C307.896 46.992 307.768 47.152 307.544 47.216C307.32 47.296 307.072 47.336 306.8 47.336ZM329.591 47.336C328.487 47.336 327.679 46.976 327.167 46.256C326.655 45.52 326.399 44.64 326.399 43.616C326.399 43.424 326.423 43.032 326.471 42.44C326.535 41.832 326.631 40.96 326.759 39.824C326.903 38.688 327.087 37.224 327.311 35.432C327.343 35.16 327.455 34.992 327.647 34.928C327.855 34.864 328.103 34.832 328.391 34.832C328.519 34.832 328.671 34.864 328.847 34.928C329.039 34.976 329.135 35.104 329.135 35.312C328.895 37.136 328.679 38.744 328.487 40.136C328.311 41.528 328.223 42.672 328.223 43.568C328.223 43.936 328.271 44.288 328.367 44.624C328.463 44.96 328.647 45.232 328.919 45.44C329.191 45.648 329.583 45.752 330.095 45.752C330.767 45.752 331.335 45.568 331.799 45.2C332.279 44.832 332.671 44.344 332.975 43.736C333.295 43.128 333.543 42.472 333.719 41.768C333.895 41.064 334.023 40.376 334.103 39.704L334.631 35.432C334.663 35.16 334.791 34.992 335.015 34.928C335.239 34.864 335.487 34.832 335.759 34.832C335.983 34.832 336.151 34.864 336.263 34.928C336.391 34.992 336.455 35.12 336.455 35.312L335.615 42.032C335.567 42.416 335.535 42.76 335.519 43.064C335.519 43.368 335.519 43.648 335.519 43.904C335.519 44.688 335.583 45.28 335.711 45.68C335.855 46.08 335.927 46.408 335.927 46.664C335.927 46.872 335.767 47.032 335.447 47.144C335.127 47.272 334.855 47.336 334.631 47.336C334.471 47.336 334.343 47.224 334.247 47C334.167 46.776 334.095 46.504 334.031 46.184C333.983 45.864 333.943 45.552 333.911 45.248C333.895 44.944 333.879 44.712 333.863 44.552C333.431 45.432 332.863 46.12 332.159 46.616C331.455 47.096 330.599 47.336 329.591 47.336ZM341.793 47.336C341.153 47.336 340.553 47.248 339.993 47.072C339.433 46.896 338.977 46.688 338.625 46.448C338.273 46.208 338.097 46.008 338.097 45.848C338.097 45.624 338.153 45.384 338.265 45.128C338.377 44.856 338.553 44.72 338.793 44.72C338.841 44.72 338.985 44.816 339.225 45.008C339.465 45.184 339.793 45.368 340.209 45.56C340.641 45.752 341.145 45.848 341.721 45.848C342.009 45.848 342.305 45.8 342.609 45.704C342.929 45.608 343.201 45.448 343.425 45.224C343.649 44.984 343.761 44.672 343.761 44.288C343.761 43.792 343.609 43.36 343.305 42.992C343.017 42.608 342.657 42.248 342.225 41.912C341.793 41.576 341.361 41.232 340.929 40.88C340.497 40.528 340.129 40.128 339.825 39.68C339.537 39.216 339.393 38.68 339.393 38.072C339.393 37.512 339.537 36.984 339.825 36.488C340.113 35.992 340.513 35.592 341.025 35.288C341.553 34.984 342.153 34.832 342.825 34.832C343.673 34.832 344.353 34.952 344.865 35.192C345.393 35.416 345.657 35.664 345.657 35.936C345.657 36.144 345.601 36.376 345.489 36.632C345.393 36.888 345.233 37.016 345.009 37.016C344.961 37.016 344.857 36.96 344.697 36.848C344.537 36.72 344.305 36.6 344.001 36.488C343.697 36.376 343.313 36.32 342.849 36.32C342.321 36.32 341.897 36.464 341.577 36.752C341.273 37.024 341.121 37.408 341.121 37.904C341.121 38.336 341.273 38.736 341.577 39.104C341.881 39.456 342.249 39.808 342.681 40.16C343.129 40.496 343.569 40.856 344.001 41.24C344.449 41.608 344.825 42.024 345.129 42.488C345.433 42.936 345.585 43.464 345.585 44.072C345.585 44.584 345.441 45.096 345.153 45.608C344.881 46.104 344.465 46.52 343.905 46.856C343.345 47.176 342.641 47.336 341.793 47.336ZM349.474 42.56C349.346 42.56 349.21 42.536 349.066 42.488C348.938 42.44 348.874 42.32 348.874 42.128C348.874 42.08 348.874 42.024 348.874 41.96C348.874 41.88 348.882 41.784 348.898 41.672L350.242 28.088C350.274 27.672 350.41 27.416 350.65 27.32C350.906 27.208 351.146 27.152 351.37 27.152C351.594 27.152 351.818 27.208 352.042 27.32C352.266 27.416 352.378 27.616 352.378 27.92C352.378 28.048 352.338 28.392 352.258 28.952L350.362 41.984C350.33 42.24 350.202 42.4 349.978 42.464C349.77 42.528 349.602 42.56 349.474 42.56ZM348.898 47.336C348.482 47.336 348.194 47.248 348.034 47.072C347.89 46.896 347.818 46.68 347.818 46.424C347.818 46.056 347.906 45.72 348.082 45.416C348.274 45.112 348.642 44.96 349.186 44.96C349.602 44.96 349.882 45.048 350.026 45.224C350.186 45.384 350.266 45.592 350.266 45.848C350.266 46.216 350.178 46.56 350.002 46.88C349.826 47.184 349.458 47.336 348.898 47.336Z" fill="#0C2C55"/>
</svg>
