<svg width="427" height="52" viewBox="0 0 427 52" fill="none" xmlns="http://www.w3.org/2000/svg">
<rect x="216" y="34" width="103" height="13" fill="#98D8EF" fill-opacity="0.8"/>
<rect x="97" y="34" width="70" height="13" fill="#A7D397" fill-opacity="0.8"/>
<rect x="342" y="9" width="83" height="13" fill="#FFDC7F" fill-opacity="0.7"/>
<rect x="264" y="9" width="74" height="13" fill="#F7A8C4" fill-opacity="0.8"/>
<path d="M11.1012 6.928C10.7172 6.928 10.5252 6.784 10.5252 6.496C10.5252 6.464 10.5252 6.392 10.5252 6.28C10.5412 6.152 10.5652 5.912 10.5972 5.56C10.6292 5.208 10.6772 4.672 10.7412 3.952C10.8212 3.216 10.9172 2.24 11.0292 1.024C11.0612 0.607999 11.2052 0.351999 11.4612 0.256C11.7172 0.143999 11.9572 0.0879989 12.1812 0.0879989C12.4052 0.0879989 12.6212 0.143999 12.8292 0.256C13.0532 0.351999 13.1652 0.543999 13.1652 0.831999C13.1652 0.831999 13.1492 0.887999 13.1172 0.999999C13.1012 1.096 13.0532 1.328 12.9732 1.696C12.9092 2.048 12.7972 2.6 12.6372 3.352C12.4772 4.088 12.2612 5.088 11.9892 6.352C11.9252 6.608 11.7892 6.768 11.5812 6.832C11.3892 6.896 11.2292 6.928 11.1012 6.928ZM7.26116 6.928C6.87716 6.928 6.68516 6.784 6.68516 6.496C6.68516 6.464 6.68516 6.392 6.68516 6.28C6.70116 6.152 6.72516 5.912 6.75716 5.56C6.78916 5.208 6.83716 4.672 6.90116 3.952C6.98116 3.216 7.07716 2.24 7.18916 1.024C7.22116 0.607999 7.36516 0.351999 7.62116 0.256C7.87716 0.143999 8.11716 0.0879989 8.34116 0.0879989C8.56516 0.0879989 8.78116 0.143999 8.98916 0.256C9.21316 0.351999 9.32516 0.543999 9.32516 0.831999C9.32516 0.831999 9.30916 0.887999 9.27716 0.999999C9.26116 1.096 9.21316 1.328 9.13316 1.696C9.06916 2.048 8.95716 2.6 8.79716 3.352C8.63716 4.088 8.42116 5.088 8.14916 6.352C8.08516 6.608 7.94916 6.768 7.74116 6.832C7.54916 6.896 7.38916 6.928 7.26116 6.928ZM20.5737 22.336C20.2697 22.336 20.0057 22.288 19.7817 22.192C19.5737 22.096 19.4377 21.912 19.3737 21.64L16.2057 1.864C16.2057 1.832 16.1977 1.8 16.1817 1.768C16.1817 1.736 16.1817 1.704 16.1817 1.672C16.1817 1.464 16.2617 1.312 16.4217 1.216C16.5977 1.12 16.8217 1.072 17.0937 1.072C17.3977 1.072 17.6297 1.12 17.7897 1.216C17.9657 1.296 18.0777 1.48 18.1257 1.768L20.8377 19.624L26.2857 1.816C26.3337 1.64 26.4057 1.472 26.5017 1.312C26.6137 1.152 26.8137 1.072 27.1017 1.072H27.1977C27.5017 1.072 27.7337 1.12 27.8937 1.216C28.0697 1.296 28.1817 1.48 28.2297 1.768L30.9657 19.624L36.4377 1.744C36.4697 1.616 36.5257 1.472 36.6057 1.312C36.6857 1.152 36.8457 1.072 37.0857 1.072C37.3097 1.072 37.5577 1.128 37.8297 1.24C38.1177 1.336 38.2617 1.544 38.2617 1.864C38.2617 1.88 38.2457 1.952 38.2137 2.08C38.1817 2.208 38.1017 2.48 37.9737 2.896C37.8457 3.296 37.6457 3.928 37.3737 4.792L32.0457 21.64C31.9337 21.896 31.7577 22.072 31.5177 22.168C31.2777 22.28 31.0057 22.336 30.7017 22.336C30.3977 22.336 30.1337 22.288 29.9097 22.192C29.7017 22.096 29.5577 21.912 29.4777 21.64L26.8857 5.392L21.9177 21.64C21.8057 21.896 21.6297 22.072 21.3897 22.168C21.1497 22.28 20.8777 22.336 20.5737 22.336ZM43.0129 22.336C41.3329 22.336 40.0609 21.872 39.1969 20.944C38.3329 20.016 37.9009 18.712 37.9009 17.032C37.9009 15.8 38.1089 14.736 38.5249 13.84C38.9569 12.928 39.5089 12.176 40.1809 11.584C40.8529 10.992 41.5649 10.552 42.3169 10.264C43.0689 9.976 43.7809 9.832 44.4529 9.832C45.3009 9.832 46.0129 10.04 46.5889 10.456C47.1649 10.872 47.4529 11.48 47.4529 12.28C47.4529 13.224 47.1089 14.056 46.4209 14.776C45.7329 15.496 44.8129 16.056 43.6609 16.456C42.5249 16.856 41.2529 17.056 39.8449 17.056C39.8449 18.224 40.1169 19.152 40.6609 19.84C41.2209 20.512 42.0369 20.848 43.1089 20.848C43.6689 20.848 44.1569 20.744 44.5729 20.536C45.0049 20.312 45.3489 20.096 45.6049 19.888C45.8769 19.68 46.0289 19.576 46.0609 19.576C46.2529 19.576 46.4049 19.704 46.5169 19.96C46.6449 20.2 46.7089 20.432 46.7089 20.656C46.7089 20.816 46.5169 21.032 46.1329 21.304C45.7489 21.576 45.2689 21.816 44.6929 22.024C44.1329 22.232 43.5729 22.336 43.0129 22.336ZM39.9409 15.64C40.6449 15.64 41.3409 15.568 42.0289 15.424C42.7169 15.264 43.3329 15.048 43.8769 14.776C44.4369 14.504 44.8769 14.176 45.1969 13.792C45.5329 13.408 45.7009 12.984 45.7009 12.52C45.7009 12.104 45.5729 11.792 45.3169 11.584C45.0609 11.376 44.7409 11.272 44.3569 11.272C43.8609 11.272 43.3009 11.44 42.6769 11.776C42.0529 12.096 41.4769 12.576 40.9489 13.216C40.4369 13.856 40.1009 14.664 39.9409 15.64ZM56.722 22.336C56.498 22.336 56.33 22.304 56.218 22.24C56.122 22.176 56.074 22.048 56.074 21.856L57.442 10.432C57.474 10.16 57.586 9.992 57.778 9.928C57.986 9.864 58.226 9.832 58.498 9.832C58.722 9.832 58.898 9.872 59.026 9.952C59.17 10.016 59.242 10.136 59.242 10.312L59.026 11.992H59.17C59.634 11.384 60.17 10.872 60.778 10.456C61.402 10.04 62.066 9.832 62.77 9.832C63.586 9.832 64.282 10.032 64.858 10.432C65.434 10.816 65.802 11.344 65.962 12.016H66.082C66.546 11.328 67.098 10.792 67.738 10.408C68.378 10.024 69.082 9.832 69.85 9.832C70.874 9.832 71.674 10.12 72.25 10.696C72.842 11.272 73.138 12.048 73.138 13.024C73.138 13.072 73.13 13.152 73.114 13.264C73.114 13.376 73.098 13.584 73.066 13.888C73.034 14.176 72.978 14.624 72.898 15.232C72.818 15.84 72.706 16.672 72.562 17.728C72.434 18.768 72.258 20.104 72.034 21.736C72.002 21.992 71.882 22.152 71.674 22.216C71.466 22.296 71.226 22.336 70.954 22.336C70.746 22.336 70.586 22.304 70.474 22.24C70.378 22.176 70.33 22.048 70.33 21.856L71.338 13.096C71.338 12.712 71.194 12.336 70.906 11.968C70.618 11.6 70.098 11.416 69.346 11.416C68.578 11.416 67.93 11.688 67.402 12.232C66.89 12.76 66.482 13.472 66.178 14.368C65.874 15.264 65.65 16.248 65.506 17.32L64.954 21.736C64.922 21.992 64.786 22.152 64.546 22.216C64.322 22.296 64.074 22.336 63.802 22.336C63.594 22.336 63.434 22.304 63.322 22.24C63.21 22.176 63.154 22.048 63.154 21.856L64.234 13.096C64.234 12.712 64.09 12.336 63.802 11.968C63.53 11.6 63.018 11.416 62.266 11.416C61.498 11.416 60.85 11.688 60.322 12.232C59.794 12.76 59.37 13.472 59.05 14.368C58.746 15.264 58.53 16.248 58.402 17.32L57.85 21.736C57.818 21.992 57.69 22.152 57.466 22.216C57.242 22.296 56.994 22.336 56.722 22.336ZM78.5113 22.336C77.6793 22.336 76.9593 22.096 76.3513 21.616C75.7433 21.12 75.4393 20.384 75.4393 19.408C75.4393 18.624 75.6713 17.88 76.1353 17.176C76.6153 16.456 77.4233 15.848 78.5593 15.352C79.7113 14.856 81.2953 14.544 83.3113 14.416C83.3593 14.128 83.3913 13.856 83.4073 13.6C83.4233 13.328 83.4313 13.104 83.4313 12.928C83.4313 12.352 83.2153 11.96 82.7833 11.752C82.3513 11.544 81.8313 11.44 81.2233 11.44C80.6153 11.44 80.0793 11.52 79.6153 11.68C79.1513 11.824 78.7673 11.976 78.4633 12.136C78.1593 12.28 77.9353 12.352 77.7913 12.352C77.5673 12.352 77.3913 12.216 77.2633 11.944C77.1513 11.672 77.0953 11.432 77.0953 11.224C77.0953 11.08 77.2313 10.928 77.5033 10.768C77.7913 10.608 78.1513 10.456 78.5833 10.312C79.0313 10.168 79.4953 10.056 79.9753 9.976C80.4553 9.88 80.8953 9.832 81.2953 9.832C81.9673 9.832 82.6073 9.92 83.2153 10.096C83.8233 10.256 84.3193 10.536 84.7033 10.936C85.0873 11.336 85.2793 11.888 85.2793 12.592C85.2793 13.088 85.2073 13.744 85.0633 14.56C84.9193 15.36 84.7673 16.208 84.6073 17.104C84.4633 18 84.3913 18.848 84.3913 19.648C84.3913 20.192 84.4313 20.608 84.5113 20.896C84.6073 21.184 84.6553 21.44 84.6553 21.664C84.6553 21.808 84.5673 21.928 84.3913 22.024C84.2313 22.12 84.0393 22.192 83.8153 22.24C83.6073 22.304 83.4233 22.336 83.2633 22.336C83.1193 22.336 83.0073 22.216 82.9273 21.976C82.8473 21.736 82.7913 21.448 82.7593 21.112C82.7433 20.776 82.7353 20.464 82.7353 20.176V19.552C82.2393 20.512 81.5993 21.216 80.8153 21.664C80.0313 22.112 79.2633 22.336 78.5113 22.336ZM79.1353 20.752C79.6793 20.752 80.1673 20.608 80.5993 20.32C81.0313 20.016 81.4073 19.624 81.7273 19.144C82.0633 18.648 82.3353 18.112 82.5433 17.536C82.7513 16.96 82.9033 16.4 82.9993 15.856C81.5593 15.968 80.4233 16.176 79.5913 16.48C78.7753 16.768 78.1913 17.128 77.8393 17.56C77.5033 17.992 77.3353 18.488 77.3353 19.048C77.3353 19.512 77.4953 19.912 77.8153 20.248C78.1353 20.584 78.5753 20.752 79.1353 20.752ZM96.4628 22.528C96.1588 22.528 95.7988 22.312 95.3828 21.88C94.9668 21.448 94.5108 20.872 94.0148 20.152L91.3748 16.264L90.5348 16.96L89.9588 21.736C89.9268 21.992 89.7908 22.152 89.5508 22.216C89.3268 22.296 89.0788 22.336 88.8068 22.336C88.5988 22.336 88.4388 22.304 88.3268 22.24C88.2308 22.176 88.1828 22.048 88.1828 21.856L90.6308 1.336C90.6628 1.064 90.7748 0.895999 90.9668 0.831999C91.1588 0.751999 91.3908 0.711999 91.6628 0.711999C91.8708 0.711999 92.0468 0.751999 92.1908 0.831999C92.3348 0.911999 92.4068 1.04 92.4068 1.216L90.7988 14.8C92.0308 13.712 92.9908 12.848 93.6788 12.208C94.3828 11.552 94.9108 11.056 95.2628 10.72C95.6148 10.384 95.8628 10.16 96.0068 10.048C96.1508 9.92 96.2708 9.848 96.3668 9.832C96.6068 9.832 96.8148 9.92 96.9908 10.096C97.1668 10.256 97.2628 10.424 97.2788 10.6C97.2788 10.712 97.2148 10.864 97.0868 11.056C96.9748 11.232 96.7588 11.48 96.4388 11.8C96.1188 12.12 95.6548 12.552 95.0468 13.096C94.4388 13.624 93.6468 14.304 92.6708 15.136L95.1908 18.712C95.7188 19.448 96.1428 19.976 96.4628 20.296C96.7828 20.616 97.0148 20.84 97.1588 20.968C97.3028 21.096 97.3748 21.24 97.3748 21.4C97.3748 21.656 97.2628 21.904 97.0388 22.144C96.8148 22.4 96.6228 22.528 96.4628 22.528ZM104.232 22.336C102.552 22.336 101.28 21.872 100.416 20.944C99.5517 20.016 99.1197 18.712 99.1197 17.032C99.1197 15.8 99.3277 14.736 99.7437 13.84C100.176 12.928 100.728 12.176 101.4 11.584C102.072 10.992 102.784 10.552 103.536 10.264C104.288 9.976 105 9.832 105.672 9.832C106.52 9.832 107.232 10.04 107.808 10.456C108.384 10.872 108.672 11.48 108.672 12.28C108.672 13.224 108.328 14.056 107.64 14.776C106.952 15.496 106.032 16.056 104.88 16.456C103.744 16.856 102.472 17.056 101.064 17.056C101.064 18.224 101.336 19.152 101.88 19.84C102.44 20.512 103.256 20.848 104.328 20.848C104.888 20.848 105.376 20.744 105.792 20.536C106.224 20.312 106.568 20.096 106.824 19.888C107.096 19.68 107.248 19.576 107.28 19.576C107.472 19.576 107.624 19.704 107.736 19.96C107.864 20.2 107.928 20.432 107.928 20.656C107.928 20.816 107.736 21.032 107.352 21.304C106.968 21.576 106.488 21.816 105.912 22.024C105.352 22.232 104.792 22.336 104.232 22.336ZM101.16 15.64C101.864 15.64 102.56 15.568 103.248 15.424C103.936 15.264 104.552 15.048 105.096 14.776C105.656 14.504 106.096 14.176 106.416 13.792C106.752 13.408 106.92 12.984 106.92 12.52C106.92 12.104 106.792 11.792 106.536 11.584C106.28 11.376 105.96 11.272 105.576 11.272C105.08 11.272 104.52 11.44 103.896 11.776C103.272 12.096 102.696 12.576 102.168 13.216C101.656 13.856 101.32 14.664 101.16 15.64ZM121.421 5.392C121.421 5.76 121.333 6.104 121.157 6.424C120.981 6.728 120.613 6.88 120.053 6.88C119.637 6.88 119.349 6.792 119.189 6.616C119.045 6.44 118.973 6.224 118.973 5.968C118.973 5.6 119.061 5.264 119.237 4.96C119.429 4.656 119.797 4.504 120.341 4.504C120.757 4.504 121.037 4.592 121.181 4.768C121.341 4.928 121.421 5.136 121.421 5.392ZM117.941 22.336C117.717 22.336 117.549 22.304 117.437 22.24C117.341 22.176 117.293 22.048 117.293 21.856L118.661 10.432C118.693 10.16 118.805 9.992 118.997 9.928C119.205 9.864 119.445 9.832 119.717 9.832C119.941 9.832 120.117 9.872 120.245 9.952C120.389 10.016 120.461 10.136 120.461 10.312L119.069 21.736C119.037 21.992 118.909 22.152 118.685 22.216C118.461 22.296 118.213 22.336 117.941 22.336ZM125.192 22.336C125 22.336 124.832 22.184 124.688 21.88C124.56 21.576 124.456 21.184 124.376 20.704C124.312 20.208 124.28 19.68 124.28 19.12C124.28 18.784 124.296 18.408 124.328 17.992C124.376 17.576 124.408 17.256 124.424 17.032L125.048 11.776H123.68C123.328 11.776 123.152 11.544 123.152 11.08C123.152 10.872 123.216 10.672 123.344 10.48C123.472 10.272 123.64 10.168 123.848 10.168H125.264L125.696 6.472C125.728 6.2 125.888 6 126.176 5.872C126.464 5.744 126.744 5.68 127.016 5.68C127.24 5.68 127.376 5.696 127.424 5.728C127.488 5.76 127.52 5.84 127.52 5.968L127.016 10.168H129.248C129.616 10.168 129.8 10.408 129.8 10.888C129.8 11.08 129.728 11.28 129.584 11.488C129.456 11.68 129.288 11.776 129.08 11.776H126.8L126.176 17.032C126.128 17.416 126.096 17.76 126.08 18.064C126.064 18.368 126.056 18.648 126.056 18.904C126.056 19.688 126.12 20.28 126.248 20.68C126.392 21.08 126.464 21.408 126.464 21.664C126.464 21.872 126.304 22.032 125.984 22.144C125.68 22.272 125.416 22.336 125.192 22.336ZM140.183 22.336C139.543 22.336 138.943 22.248 138.383 22.072C137.823 21.896 137.367 21.688 137.015 21.448C136.663 21.208 136.487 21.008 136.487 20.848C136.487 20.624 136.543 20.384 136.655 20.128C136.767 19.856 136.943 19.72 137.183 19.72C137.231 19.72 137.375 19.816 137.615 20.008C137.855 20.184 138.183 20.368 138.599 20.56C139.031 20.752 139.535 20.848 140.111 20.848C140.399 20.848 140.695 20.8 140.999 20.704C141.319 20.608 141.591 20.448 141.815 20.224C142.039 19.984 142.151 19.672 142.151 19.288C142.151 18.792 141.999 18.36 141.695 17.992C141.407 17.608 141.047 17.248 140.615 16.912C140.183 16.576 139.751 16.232 139.319 15.88C138.887 15.528 138.519 15.128 138.215 14.68C137.927 14.216 137.783 13.68 137.783 13.072C137.783 12.512 137.927 11.984 138.215 11.488C138.503 10.992 138.903 10.592 139.415 10.288C139.943 9.984 140.543 9.832 141.215 9.832C142.063 9.832 142.743 9.952 143.255 10.192C143.783 10.416 144.047 10.664 144.047 10.936C144.047 11.144 143.991 11.376 143.879 11.632C143.783 11.888 143.623 12.016 143.399 12.016C143.351 12.016 143.247 11.96 143.087 11.848C142.927 11.72 142.695 11.6 142.391 11.488C142.087 11.376 141.703 11.32 141.239 11.32C140.711 11.32 140.287 11.464 139.967 11.752C139.663 12.024 139.511 12.408 139.511 12.904C139.511 13.336 139.663 13.736 139.967 14.104C140.271 14.456 140.639 14.808 141.071 15.16C141.519 15.496 141.959 15.856 142.391 16.24C142.839 16.608 143.215 17.024 143.519 17.488C143.823 17.936 143.975 18.464 143.975 19.072C143.975 19.584 143.831 20.096 143.543 20.608C143.271 21.104 142.855 21.52 142.295 21.856C141.735 22.176 141.031 22.336 140.183 22.336ZM151.177 22.336C149.497 22.336 148.225 21.872 147.361 20.944C146.497 20.016 146.065 18.712 146.065 17.032C146.065 15.8 146.273 14.736 146.689 13.84C147.121 12.928 147.673 12.176 148.345 11.584C149.017 10.992 149.729 10.552 150.481 10.264C151.233 9.976 151.945 9.832 152.617 9.832C153.465 9.832 154.177 10.04 154.753 10.456C155.329 10.872 155.617 11.48 155.617 12.28C155.617 13.224 155.273 14.056 154.585 14.776C153.897 15.496 152.977 16.056 151.825 16.456C150.689 16.856 149.417 17.056 148.009 17.056C148.009 18.224 148.281 19.152 148.825 19.84C149.385 20.512 150.201 20.848 151.273 20.848C151.833 20.848 152.321 20.744 152.737 20.536C153.169 20.312 153.513 20.096 153.769 19.888C154.041 19.68 154.193 19.576 154.225 19.576C154.417 19.576 154.569 19.704 154.681 19.96C154.809 20.2 154.873 20.432 154.873 20.656C154.873 20.816 154.681 21.032 154.297 21.304C153.913 21.576 153.433 21.816 152.857 22.024C152.297 22.232 151.737 22.336 151.177 22.336ZM148.105 15.64C148.809 15.64 149.505 15.568 150.193 15.424C150.881 15.264 151.497 15.048 152.041 14.776C152.601 14.504 153.041 14.176 153.361 13.792C153.697 13.408 153.865 12.984 153.865 12.52C153.865 12.104 153.737 11.792 153.481 11.584C153.225 11.376 152.905 11.272 152.521 11.272C152.025 11.272 151.465 11.44 150.841 11.776C150.217 12.096 149.641 12.576 149.113 13.216C148.601 13.856 148.265 14.664 148.105 15.64ZM159.839 22.336C159.007 22.336 158.287 22.096 157.679 21.616C157.071 21.12 156.767 20.384 156.767 19.408C156.767 18.624 156.999 17.88 157.463 17.176C157.943 16.456 158.751 15.848 159.887 15.352C161.039 14.856 162.623 14.544 164.639 14.416C164.687 14.128 164.719 13.856 164.735 13.6C164.751 13.328 164.759 13.104 164.759 12.928C164.759 12.352 164.543 11.96 164.111 11.752C163.679 11.544 163.159 11.44 162.551 11.44C161.943 11.44 161.407 11.52 160.943 11.68C160.479 11.824 160.095 11.976 159.791 12.136C159.487 12.28 159.263 12.352 159.119 12.352C158.895 12.352 158.719 12.216 158.591 11.944C158.479 11.672 158.423 11.432 158.423 11.224C158.423 11.08 158.559 10.928 158.831 10.768C159.119 10.608 159.479 10.456 159.911 10.312C160.359 10.168 160.823 10.056 161.303 9.976C161.783 9.88 162.223 9.832 162.623 9.832C163.295 9.832 163.935 9.92 164.543 10.096C165.151 10.256 165.647 10.536 166.031 10.936C166.415 11.336 166.607 11.888 166.607 12.592C166.607 13.088 166.535 13.744 166.391 14.56C166.247 15.36 166.095 16.208 165.935 17.104C165.791 18 165.719 18.848 165.719 19.648C165.719 20.192 165.759 20.608 165.839 20.896C165.935 21.184 165.983 21.44 165.983 21.664C165.983 21.808 165.895 21.928 165.719 22.024C165.559 22.12 165.367 22.192 165.143 22.24C164.935 22.304 164.751 22.336 164.591 22.336C164.447 22.336 164.335 22.216 164.255 21.976C164.175 21.736 164.119 21.448 164.087 21.112C164.071 20.776 164.063 20.464 164.063 20.176V19.552C163.567 20.512 162.927 21.216 162.143 21.664C161.359 22.112 160.591 22.336 159.839 22.336ZM160.463 20.752C161.007 20.752 161.495 20.608 161.927 20.32C162.359 20.016 162.735 19.624 163.055 19.144C163.391 18.648 163.663 18.112 163.871 17.536C164.079 16.96 164.231 16.4 164.327 15.856C162.887 15.968 161.751 16.176 160.919 16.48C160.103 16.768 159.519 17.128 159.167 17.56C158.831 17.992 158.663 18.488 158.663 19.048C158.663 19.512 158.823 19.912 159.143 20.248C159.463 20.584 159.903 20.752 160.463 20.752ZM170.183 22.336C169.959 22.336 169.791 22.304 169.679 22.24C169.583 22.176 169.535 22.048 169.535 21.856L170.903 10.432C170.935 10.16 171.047 9.992 171.239 9.928C171.447 9.864 171.687 9.832 171.959 9.832C172.183 9.832 172.359 9.872 172.487 9.952C172.631 10.016 172.703 10.136 172.703 10.312L172.487 11.992H172.631C173.095 11.384 173.631 10.872 174.239 10.456C174.863 10.04 175.527 9.832 176.231 9.832C177.047 9.832 177.743 10.032 178.319 10.432C178.895 10.816 179.263 11.344 179.423 12.016H179.543C180.007 11.328 180.559 10.792 181.199 10.408C181.839 10.024 182.543 9.832 183.311 9.832C184.335 9.832 185.135 10.12 185.711 10.696C186.303 11.272 186.599 12.048 186.599 13.024C186.599 13.072 186.591 13.152 186.575 13.264C186.575 13.376 186.559 13.584 186.527 13.888C186.495 14.176 186.439 14.624 186.359 15.232C186.279 15.84 186.167 16.672 186.023 17.728C185.895 18.768 185.719 20.104 185.495 21.736C185.463 21.992 185.343 22.152 185.135 22.216C184.927 22.296 184.687 22.336 184.415 22.336C184.207 22.336 184.047 22.304 183.935 22.24C183.839 22.176 183.791 22.048 183.791 21.856L184.799 13.096C184.799 12.712 184.655 12.336 184.367 11.968C184.079 11.6 183.559 11.416 182.807 11.416C182.039 11.416 181.391 11.688 180.863 12.232C180.351 12.76 179.943 13.472 179.639 14.368C179.335 15.264 179.111 16.248 178.967 17.32L178.415 21.736C178.383 21.992 178.247 22.152 178.007 22.216C177.783 22.296 177.535 22.336 177.263 22.336C177.055 22.336 176.895 22.304 176.783 22.24C176.671 22.176 176.615 22.048 176.615 21.856L177.695 13.096C177.695 12.712 177.551 12.336 177.263 11.968C176.991 11.6 176.479 11.416 175.727 11.416C174.959 11.416 174.311 11.688 173.783 12.232C173.255 12.76 172.831 13.472 172.511 14.368C172.207 15.264 171.991 16.248 171.863 17.32L171.311 21.736C171.279 21.992 171.151 22.152 170.927 22.216C170.703 22.296 170.455 22.336 170.183 22.336ZM190.292 22.336C190.068 22.336 189.9 22.304 189.788 22.24C189.692 22.176 189.644 22.048 189.644 21.856L192.092 1.336C192.124 1.064 192.236 0.895999 192.428 0.831999C192.62 0.751999 192.86 0.711999 193.148 0.711999C193.356 0.711999 193.532 0.751999 193.676 0.831999C193.82 0.911999 193.892 1.04 193.892 1.216L191.42 21.736C191.388 21.992 191.26 22.152 191.036 22.216C190.812 22.296 190.564 22.336 190.292 22.336ZM200.232 22.336C198.552 22.336 197.28 21.872 196.416 20.944C195.552 20.016 195.12 18.712 195.12 17.032C195.12 15.8 195.328 14.736 195.744 13.84C196.176 12.928 196.728 12.176 197.4 11.584C198.072 10.992 198.784 10.552 199.536 10.264C200.288 9.976 201 9.832 201.672 9.832C202.52 9.832 203.232 10.04 203.808 10.456C204.384 10.872 204.672 11.48 204.672 12.28C204.672 13.224 204.328 14.056 203.64 14.776C202.952 15.496 202.032 16.056 200.88 16.456C199.744 16.856 198.472 17.056 197.064 17.056C197.064 18.224 197.336 19.152 197.88 19.84C198.44 20.512 199.256 20.848 200.328 20.848C200.888 20.848 201.376 20.744 201.792 20.536C202.224 20.312 202.568 20.096 202.824 19.888C203.096 19.68 203.248 19.576 203.28 19.576C203.472 19.576 203.624 19.704 203.736 19.96C203.864 20.2 203.928 20.432 203.928 20.656C203.928 20.816 203.736 21.032 203.352 21.304C202.968 21.576 202.488 21.816 201.912 22.024C201.352 22.232 200.792 22.336 200.232 22.336ZM197.16 15.64C197.864 15.64 198.56 15.568 199.248 15.424C199.936 15.264 200.552 15.048 201.096 14.776C201.656 14.504 202.096 14.176 202.416 13.792C202.752 13.408 202.92 12.984 202.92 12.52C202.92 12.104 202.792 11.792 202.536 11.584C202.28 11.376 201.96 11.272 201.576 11.272C201.08 11.272 200.52 11.44 199.896 11.776C199.272 12.096 198.696 12.576 198.168 13.216C197.656 13.856 197.32 14.664 197.16 15.64ZM209.23 22.336C208.59 22.336 207.99 22.248 207.43 22.072C206.87 21.896 206.414 21.688 206.062 21.448C205.71 21.208 205.534 21.008 205.534 20.848C205.534 20.624 205.59 20.384 205.702 20.128C205.814 19.856 205.99 19.72 206.23 19.72C206.278 19.72 206.422 19.816 206.662 20.008C206.902 20.184 207.23 20.368 207.646 20.56C208.078 20.752 208.582 20.848 209.158 20.848C209.446 20.848 209.742 20.8 210.046 20.704C210.366 20.608 210.638 20.448 210.862 20.224C211.086 19.984 211.198 19.672 211.198 19.288C211.198 18.792 211.046 18.36 210.742 17.992C210.454 17.608 210.094 17.248 209.662 16.912C209.23 16.576 208.798 16.232 208.366 15.88C207.934 15.528 207.566 15.128 207.262 14.68C206.974 14.216 206.83 13.68 206.83 13.072C206.83 12.512 206.974 11.984 207.262 11.488C207.55 10.992 207.95 10.592 208.462 10.288C208.99 9.984 209.59 9.832 210.262 9.832C211.11 9.832 211.79 9.952 212.302 10.192C212.83 10.416 213.094 10.664 213.094 10.936C213.094 11.144 213.038 11.376 212.926 11.632C212.83 11.888 212.67 12.016 212.446 12.016C212.398 12.016 212.294 11.96 212.134 11.848C211.974 11.72 211.742 11.6 211.438 11.488C211.134 11.376 210.75 11.32 210.286 11.32C209.758 11.32 209.334 11.464 209.014 11.752C208.71 12.024 208.558 12.408 208.558 12.904C208.558 13.336 208.71 13.736 209.014 14.104C209.318 14.456 209.686 14.808 210.118 15.16C210.566 15.496 211.006 15.856 211.438 16.24C211.886 16.608 212.262 17.024 212.566 17.488C212.87 17.936 213.022 18.464 213.022 19.072C213.022 19.584 212.878 20.096 212.59 20.608C212.318 21.104 211.902 21.52 211.342 21.856C210.782 22.176 210.078 22.336 209.23 22.336ZM218.16 22.336C217.52 22.336 216.92 22.248 216.36 22.072C215.8 21.896 215.344 21.688 214.992 21.448C214.64 21.208 214.464 21.008 214.464 20.848C214.464 20.624 214.52 20.384 214.632 20.128C214.744 19.856 214.92 19.72 215.16 19.72C215.208 19.72 215.352 19.816 215.592 20.008C215.832 20.184 216.16 20.368 216.576 20.56C217.008 20.752 217.512 20.848 218.088 20.848C218.376 20.848 218.672 20.8 218.976 20.704C219.296 20.608 219.568 20.448 219.792 20.224C220.016 19.984 220.128 19.672 220.128 19.288C220.128 18.792 219.976 18.36 219.672 17.992C219.384 17.608 219.024 17.248 218.592 16.912C218.16 16.576 217.728 16.232 217.296 15.88C216.864 15.528 216.496 15.128 216.192 14.68C215.904 14.216 215.76 13.68 215.76 13.072C215.76 12.512 215.904 11.984 216.192 11.488C216.48 10.992 216.88 10.592 217.392 10.288C217.92 9.984 218.52 9.832 219.192 9.832C220.04 9.832 220.72 9.952 221.232 10.192C221.76 10.416 222.024 10.664 222.024 10.936C222.024 11.144 221.968 11.376 221.856 11.632C221.76 11.888 221.6 12.016 221.376 12.016C221.328 12.016 221.224 11.96 221.064 11.848C220.904 11.72 220.672 11.6 220.368 11.488C220.064 11.376 219.68 11.32 219.216 11.32C218.688 11.32 218.264 11.464 217.944 11.752C217.64 12.024 217.488 12.408 217.488 12.904C217.488 13.336 217.64 13.736 217.944 14.104C218.248 14.456 218.616 14.808 219.048 15.16C219.496 15.496 219.936 15.856 220.368 16.24C220.816 16.608 221.192 17.024 221.496 17.488C221.8 17.936 221.952 18.464 221.952 19.072C221.952 19.584 221.808 20.096 221.52 20.608C221.248 21.104 220.832 21.52 220.272 21.856C219.712 22.176 219.008 22.336 218.16 22.336ZM228.608 30.256C227.968 30.256 227.376 30.16 226.832 29.968C226.272 29.792 225.824 29.584 225.488 29.344C225.152 29.104 224.984 28.904 224.984 28.744C224.984 28.552 225.096 28.312 225.32 28.024C225.528 27.752 225.736 27.616 225.944 27.616C225.992 27.616 226.12 27.696 226.328 27.856C226.52 28.032 226.808 28.2 227.192 28.36C227.56 28.536 228.032 28.624 228.608 28.624C229.2 28.624 229.68 28.488 230.048 28.216C230.432 27.944 230.744 27.472 230.984 26.8C231.24 26.144 231.464 25.224 231.656 24.04C231.848 22.856 232.048 21.344 232.256 19.504L233.144 11.776H231.224C231.016 11.776 230.856 11.696 230.744 11.536C230.632 11.376 230.576 11.216 230.576 11.056C230.576 10.848 230.656 10.648 230.816 10.456C230.976 10.264 231.144 10.168 231.32 10.168H233.336L233.648 7.432C233.744 6.6 233.872 5.792 234.032 5.008C234.208 4.224 234.464 3.52 234.8 2.896C235.136 2.256 235.584 1.752 236.144 1.384C236.72 1.016 237.448 0.831999 238.328 0.831999C238.808 0.831999 239.28 0.871999 239.744 0.951999C240.224 1.032 240.616 1.136 240.92 1.264C241.224 1.392 241.376 1.528 241.376 1.672C241.376 1.816 241.336 1.992 241.256 2.2C241.176 2.392 241.072 2.568 240.944 2.728C240.816 2.872 240.68 2.944 240.536 2.944C240.456 2.944 240.248 2.872 239.912 2.728C239.576 2.568 239.056 2.488 238.352 2.488C237.76 2.488 237.28 2.648 236.912 2.968C236.544 3.272 236.256 3.68 236.048 4.192C235.856 4.688 235.712 5.24 235.616 5.848C235.52 6.44 235.44 7.024 235.376 7.6L235.064 10.168H237.416C237.784 10.168 237.968 10.408 237.968 10.888C237.968 11.08 237.896 11.28 237.752 11.488C237.608 11.68 237.44 11.776 237.248 11.776H234.848L233.408 24.184C233.28 25.272 233.048 26.28 232.712 27.208C232.392 28.136 231.904 28.872 231.248 29.416C230.592 29.976 229.712 30.256 228.608 30.256ZM243.394 22.336C242.354 22.336 241.482 22.088 240.778 21.592C240.09 21.096 239.57 20.448 239.218 19.648C238.882 18.832 238.706 17.96 238.69 17.032C238.69 16.216 238.81 15.392 239.05 14.56C239.29 13.712 239.666 12.936 240.178 12.232C240.69 11.512 241.346 10.936 242.146 10.504C242.946 10.056 243.906 9.832 245.026 9.832C246.082 9.832 246.954 10.088 247.642 10.6C248.346 11.096 248.866 11.752 249.202 12.568C249.554 13.384 249.73 14.264 249.73 15.208C249.73 16.488 249.466 17.672 248.938 18.76C248.426 19.832 247.69 20.696 246.73 21.352C245.786 22.008 244.674 22.336 243.394 22.336ZM243.61 20.848C244.442 20.848 245.178 20.6 245.818 20.104C246.458 19.592 246.962 18.928 247.33 18.112C247.698 17.28 247.882 16.384 247.882 15.424C247.882 14.256 247.634 13.28 247.138 12.496C246.658 11.712 245.898 11.32 244.858 11.32C244.138 11.32 243.506 11.488 242.962 11.824C242.434 12.16 241.994 12.6 241.642 13.144C241.29 13.688 241.026 14.28 240.85 14.92C240.69 15.56 240.61 16.184 240.61 16.792C240.61 17.96 240.85 18.928 241.33 19.696C241.81 20.464 242.57 20.848 243.61 20.848ZM252.8 22.336C252.576 22.336 252.408 22.304 252.296 22.24C252.2 22.176 252.152 22.048 252.152 21.856L253.52 10.432C253.552 10.16 253.664 9.992 253.856 9.928C254.064 9.864 254.304 9.832 254.576 9.832C254.8 9.832 254.976 9.872 255.104 9.952C255.248 10.016 255.32 10.136 255.32 10.312L255.08 12.112H255.2C255.648 11.376 256.232 10.784 256.952 10.336C257.672 9.888 258.424 9.664 259.208 9.664C259.512 9.664 259.704 9.712 259.784 9.808C259.864 9.904 259.904 10.024 259.904 10.168C259.904 10.536 259.832 10.808 259.688 10.984C259.56 11.16 259.408 11.28 259.232 11.344C259.056 11.392 258.912 11.416 258.8 11.416C257.984 11.416 257.272 11.704 256.664 12.28C256.056 12.856 255.568 13.592 255.2 14.488C254.848 15.384 254.608 16.328 254.48 17.32L253.928 21.736C253.896 21.992 253.768 22.152 253.544 22.216C253.32 22.296 253.072 22.336 252.8 22.336ZM272.654 22.336C270.974 22.336 269.702 21.864 268.838 20.92C267.974 19.976 267.542 18.664 267.542 16.984C267.542 16.088 267.686 15.216 267.974 14.368C268.262 13.52 268.678 12.752 269.222 12.064C269.766 11.376 270.43 10.832 271.214 10.432C272.014 10.032 272.918 9.832 273.926 9.832C274.566 9.832 275.126 9.92 275.606 10.096C276.086 10.256 276.454 10.448 276.71 10.672C276.982 10.896 277.118 11.096 277.118 11.272C277.118 11.496 277.022 11.72 276.83 11.944C276.654 12.168 276.454 12.28 276.23 12.28C276.134 12.28 275.998 12.2 275.822 12.04C275.662 11.88 275.43 11.72 275.126 11.56C274.822 11.4 274.406 11.32 273.878 11.32C273.078 11.32 272.398 11.488 271.838 11.824C271.294 12.16 270.846 12.608 270.494 13.168C270.158 13.728 269.91 14.344 269.75 15.016C269.59 15.688 269.51 16.36 269.51 17.032C269.51 18.2 269.782 19.128 270.326 19.816C270.87 20.504 271.678 20.848 272.75 20.848C273.31 20.848 273.798 20.744 274.214 20.536C274.646 20.312 274.99 20.096 275.246 19.888C275.518 19.68 275.678 19.576 275.726 19.576C275.902 19.576 276.046 19.704 276.158 19.96C276.286 20.2 276.35 20.432 276.35 20.656C276.35 20.816 276.158 21.032 275.774 21.304C275.39 21.576 274.91 21.816 274.334 22.024C273.774 22.232 273.214 22.336 272.654 22.336ZM279.542 22.336C279.318 22.336 279.15 22.304 279.038 22.24C278.942 22.176 278.894 22.048 278.894 21.856L281.342 1.336C281.374 1.064 281.486 0.895999 281.678 0.831999C281.87 0.751999 282.11 0.711999 282.398 0.711999C282.606 0.711999 282.782 0.751999 282.926 0.831999C283.07 0.911999 283.142 1.04 283.142 1.216L280.67 21.736C280.638 21.992 280.51 22.152 280.286 22.216C280.062 22.296 279.814 22.336 279.542 22.336ZM288.882 5.392C288.882 5.76 288.794 6.104 288.618 6.424C288.442 6.728 288.074 6.88 287.514 6.88C287.098 6.88 286.81 6.792 286.65 6.616C286.506 6.44 286.434 6.224 286.434 5.968C286.434 5.6 286.522 5.264 286.698 4.96C286.89 4.656 287.258 4.504 287.802 4.504C288.218 4.504 288.498 4.592 288.642 4.768C288.802 4.928 288.882 5.136 288.882 5.392ZM285.402 22.336C285.178 22.336 285.01 22.304 284.898 22.24C284.802 22.176 284.754 22.048 284.754 21.856L286.122 10.432C286.154 10.16 286.266 9.992 286.458 9.928C286.666 9.864 286.906 9.832 287.178 9.832C287.402 9.832 287.578 9.872 287.706 9.952C287.85 10.016 287.922 10.136 287.922 10.312L286.53 21.736C286.498 21.992 286.37 22.152 286.146 22.216C285.922 22.296 285.674 22.336 285.402 22.336ZM295.341 22.336C293.661 22.336 292.389 21.872 291.525 20.944C290.661 20.016 290.229 18.712 290.229 17.032C290.229 15.8 290.437 14.736 290.853 13.84C291.285 12.928 291.837 12.176 292.509 11.584C293.181 10.992 293.893 10.552 294.645 10.264C295.397 9.976 296.109 9.832 296.781 9.832C297.629 9.832 298.341 10.04 298.917 10.456C299.493 10.872 299.781 11.48 299.781 12.28C299.781 13.224 299.437 14.056 298.749 14.776C298.061 15.496 297.141 16.056 295.989 16.456C294.853 16.856 293.581 17.056 292.173 17.056C292.173 18.224 292.445 19.152 292.989 19.84C293.549 20.512 294.365 20.848 295.437 20.848C295.997 20.848 296.485 20.744 296.901 20.536C297.333 20.312 297.677 20.096 297.933 19.888C298.205 19.68 298.357 19.576 298.389 19.576C298.581 19.576 298.733 19.704 298.845 19.96C298.973 20.2 299.037 20.432 299.037 20.656C299.037 20.816 298.845 21.032 298.461 21.304C298.077 21.576 297.597 21.816 297.021 22.024C296.461 22.232 295.901 22.336 295.341 22.336ZM292.269 15.64C292.973 15.64 293.669 15.568 294.357 15.424C295.045 15.264 295.661 15.048 296.205 14.776C296.765 14.504 297.205 14.176 297.525 13.792C297.861 13.408 298.029 12.984 298.029 12.52C298.029 12.104 297.901 11.792 297.645 11.584C297.389 11.376 297.069 11.272 296.685 11.272C296.189 11.272 295.629 11.44 295.005 11.776C294.381 12.096 293.805 12.576 293.277 13.216C292.765 13.856 292.429 14.664 292.269 15.64ZM302.324 22.336C302.1 22.336 301.932 22.304 301.82 22.24C301.724 22.176 301.676 22.048 301.676 21.856L303.044 10.432C303.076 10.16 303.188 9.992 303.38 9.928C303.588 9.864 303.828 9.832 304.1 9.832C304.324 9.832 304.5 9.872 304.628 9.952C304.772 10.016 304.844 10.136 304.844 10.312L304.628 11.992H304.772C305.252 11.288 305.796 10.752 306.404 10.384C307.012 10.016 307.732 9.832 308.564 9.832C309.812 9.832 310.748 10.12 311.372 10.696C312.012 11.272 312.332 12.048 312.332 13.024C312.332 13.072 312.324 13.152 312.308 13.264C312.308 13.376 312.284 13.584 312.236 13.888C312.204 14.176 312.148 14.624 312.068 15.232C311.988 15.84 311.876 16.672 311.732 17.728C311.604 18.768 311.436 20.104 311.228 21.736C311.196 21.992 311.06 22.152 310.82 22.216C310.58 22.296 310.324 22.336 310.052 22.336C309.844 22.336 309.684 22.304 309.572 22.24C309.476 22.176 309.428 22.048 309.428 21.856L310.436 13.528C310.468 13.368 310.484 13.248 310.484 13.168C310.484 12 309.764 11.416 308.324 11.416C307.508 11.416 306.804 11.672 306.212 12.184C305.62 12.696 305.14 13.4 304.772 14.296C304.404 15.176 304.148 16.184 304.004 17.32L303.452 21.736C303.42 21.992 303.292 22.152 303.068 22.216C302.844 22.296 302.596 22.336 302.324 22.336ZM317.38 22.336C317.188 22.336 317.02 22.184 316.876 21.88C316.748 21.576 316.644 21.184 316.564 20.704C316.5 20.208 316.468 19.68 316.468 19.12C316.468 18.784 316.484 18.408 316.516 17.992C316.564 17.576 316.596 17.256 316.612 17.032L317.236 11.776H315.868C315.516 11.776 315.34 11.544 315.34 11.08C315.34 10.872 315.404 10.672 315.532 10.48C315.66 10.272 315.828 10.168 316.036 10.168H317.452L317.884 6.472C317.916 6.2 318.076 6 318.364 5.872C318.652 5.744 318.932 5.68 319.204 5.68C319.428 5.68 319.564 5.696 319.612 5.728C319.676 5.76 319.708 5.84 319.708 5.968L319.204 10.168H321.436C321.804 10.168 321.988 10.408 321.988 10.888C321.988 11.08 321.916 11.28 321.772 11.488C321.644 11.68 321.476 11.776 321.268 11.776H318.988L318.364 17.032C318.316 17.416 318.284 17.76 318.268 18.064C318.252 18.368 318.244 18.648 318.244 18.904C318.244 19.688 318.308 20.28 318.436 20.68C318.58 21.08 318.652 21.408 318.652 21.664C318.652 21.872 318.492 22.032 318.172 22.144C317.868 22.272 317.604 22.336 317.38 22.336ZM325.644 22.336C325.004 22.336 324.404 22.248 323.844 22.072C323.284 21.896 322.828 21.688 322.476 21.448C322.124 21.208 321.948 21.008 321.948 20.848C321.948 20.624 322.004 20.384 322.116 20.128C322.228 19.856 322.404 19.72 322.644 19.72C322.692 19.72 322.836 19.816 323.076 20.008C323.316 20.184 323.644 20.368 324.06 20.56C324.492 20.752 324.996 20.848 325.572 20.848C325.86 20.848 326.156 20.8 326.46 20.704C326.78 20.608 327.052 20.448 327.276 20.224C327.5 19.984 327.612 19.672 327.612 19.288C327.612 18.792 327.46 18.36 327.156 17.992C326.868 17.608 326.508 17.248 326.076 16.912C325.644 16.576 325.212 16.232 324.78 15.88C324.348 15.528 323.98 15.128 323.676 14.68C323.388 14.216 323.244 13.68 323.244 13.072C323.244 12.512 323.388 11.984 323.676 11.488C323.964 10.992 324.364 10.592 324.876 10.288C325.404 9.984 326.004 9.832 326.676 9.832C327.524 9.832 328.204 9.952 328.716 10.192C329.244 10.416 329.508 10.664 329.508 10.936C329.508 11.144 329.452 11.376 329.34 11.632C329.244 11.888 329.084 12.016 328.86 12.016C328.812 12.016 328.708 11.96 328.548 11.848C328.388 11.72 328.156 11.6 327.852 11.488C327.548 11.376 327.164 11.32 326.7 11.32C326.172 11.32 325.748 11.464 325.428 11.752C325.124 12.024 324.972 12.408 324.972 12.904C324.972 13.336 325.124 13.736 325.428 14.104C325.732 14.456 326.1 14.808 326.532 15.16C326.98 15.496 327.42 15.856 327.852 16.24C328.3 16.608 328.676 17.024 328.98 17.488C329.284 17.936 329.436 18.464 329.436 19.072C329.436 19.584 329.292 20.096 329.004 20.608C328.732 21.104 328.316 21.52 327.756 21.856C327.196 22.176 326.492 22.336 325.644 22.336ZM332.006 26.848C331.638 26.848 331.454 26.704 331.454 26.416C331.454 26.384 331.462 26.296 331.478 26.152C331.51 26.024 331.558 25.768 331.622 25.384C331.702 25.016 331.806 24.472 331.934 23.752C332.078 23.048 332.254 22.112 332.462 20.944C332.542 20.528 332.71 20.272 332.966 20.176C333.222 20.064 333.462 20.008 333.686 20.008C333.91 20.008 334.118 20.064 334.31 20.176C334.502 20.272 334.598 20.456 334.598 20.728C334.598 20.888 334.55 21.16 334.454 21.544C334.358 21.912 334.19 22.464 333.95 23.2C333.71 23.952 333.374 24.976 332.942 26.272C332.862 26.528 332.71 26.688 332.486 26.752C332.278 26.816 332.118 26.848 332.006 26.848ZM346.231 22.336C346.039 22.336 345.871 22.184 345.727 21.88C345.599 21.576 345.495 21.184 345.415 20.704C345.351 20.208 345.319 19.68 345.319 19.12C345.319 18.784 345.335 18.408 345.367 17.992C345.415 17.576 345.447 17.256 345.463 17.032L346.087 11.776H344.719C344.367 11.776 344.191 11.544 344.191 11.08C344.191 10.872 344.255 10.672 344.383 10.48C344.511 10.272 344.679 10.168 344.887 10.168H346.303L346.735 6.472C346.767 6.2 346.927 6 347.215 5.872C347.503 5.744 347.783 5.68 348.055 5.68C348.279 5.68 348.415 5.696 348.463 5.728C348.527 5.76 348.559 5.84 348.559 5.968L348.055 10.168H350.287C350.655 10.168 350.839 10.408 350.839 10.888C350.839 11.08 350.767 11.28 350.623 11.488C350.495 11.68 350.327 11.776 350.119 11.776H347.839L347.215 17.032C347.167 17.416 347.135 17.76 347.119 18.064C347.103 18.368 347.095 18.648 347.095 18.904C347.095 19.688 347.159 20.28 347.287 20.68C347.431 21.08 347.503 21.408 347.503 21.664C347.503 21.872 347.343 22.032 347.023 22.144C346.719 22.272 346.455 22.336 346.231 22.336ZM356.56 22.336C354.88 22.336 353.608 21.872 352.744 20.944C351.88 20.016 351.448 18.712 351.448 17.032C351.448 15.8 351.656 14.736 352.072 13.84C352.504 12.928 353.056 12.176 353.728 11.584C354.4 10.992 355.112 10.552 355.864 10.264C356.616 9.976 357.328 9.832 358 9.832C358.848 9.832 359.56 10.04 360.136 10.456C360.712 10.872 361 11.48 361 12.28C361 13.224 360.656 14.056 359.968 14.776C359.28 15.496 358.36 16.056 357.208 16.456C356.072 16.856 354.8 17.056 353.392 17.056C353.392 18.224 353.664 19.152 354.208 19.84C354.768 20.512 355.584 20.848 356.656 20.848C357.216 20.848 357.704 20.744 358.12 20.536C358.552 20.312 358.896 20.096 359.152 19.888C359.424 19.68 359.576 19.576 359.608 19.576C359.8 19.576 359.952 19.704 360.064 19.96C360.192 20.2 360.256 20.432 360.256 20.656C360.256 20.816 360.064 21.032 359.68 21.304C359.296 21.576 358.816 21.816 358.24 22.024C357.68 22.232 357.12 22.336 356.56 22.336ZM353.488 15.64C354.192 15.64 354.888 15.568 355.576 15.424C356.264 15.264 356.88 15.048 357.424 14.776C357.984 14.504 358.424 14.176 358.744 13.792C359.08 13.408 359.248 12.984 359.248 12.52C359.248 12.104 359.12 11.792 358.864 11.584C358.608 11.376 358.288 11.272 357.904 11.272C357.408 11.272 356.848 11.44 356.224 11.776C355.6 12.096 355.024 12.576 354.496 13.216C353.984 13.856 353.648 14.664 353.488 15.64ZM363.542 22.336C363.318 22.336 363.15 22.304 363.038 22.24C362.942 22.176 362.894 22.048 362.894 21.856L364.262 10.432C364.294 10.16 364.406 9.992 364.598 9.928C364.806 9.864 365.046 9.832 365.318 9.832C365.542 9.832 365.718 9.872 365.846 9.952C365.99 10.016 366.062 10.136 366.062 10.312L365.846 11.992H365.99C366.47 11.288 367.014 10.752 367.622 10.384C368.23 10.016 368.95 9.832 369.782 9.832C371.03 9.832 371.966 10.12 372.59 10.696C373.23 11.272 373.55 12.048 373.55 13.024C373.55 13.072 373.542 13.152 373.526 13.264C373.526 13.376 373.502 13.584 373.454 13.888C373.422 14.176 373.366 14.624 373.286 15.232C373.206 15.84 373.094 16.672 372.95 17.728C372.822 18.768 372.654 20.104 372.446 21.736C372.414 21.992 372.278 22.152 372.038 22.216C371.798 22.296 371.542 22.336 371.27 22.336C371.062 22.336 370.902 22.304 370.79 22.24C370.694 22.176 370.646 22.048 370.646 21.856L371.654 13.528C371.686 13.368 371.702 13.248 371.702 13.168C371.702 12 370.982 11.416 369.542 11.416C368.726 11.416 368.022 11.672 367.43 12.184C366.838 12.696 366.358 13.4 365.99 14.296C365.622 15.176 365.366 16.184 365.222 17.32L364.67 21.736C364.638 21.992 364.51 22.152 364.286 22.216C364.062 22.296 363.814 22.336 363.542 22.336ZM378.886 22.336C378.054 22.336 377.334 22.096 376.726 21.616C376.118 21.12 375.814 20.384 375.814 19.408C375.814 18.624 376.046 17.88 376.51 17.176C376.99 16.456 377.798 15.848 378.934 15.352C380.086 14.856 381.67 14.544 383.686 14.416C383.734 14.128 383.766 13.856 383.782 13.6C383.798 13.328 383.806 13.104 383.806 12.928C383.806 12.352 383.59 11.96 383.158 11.752C382.726 11.544 382.206 11.44 381.598 11.44C380.99 11.44 380.454 11.52 379.99 11.68C379.526 11.824 379.142 11.976 378.838 12.136C378.534 12.28 378.31 12.352 378.166 12.352C377.942 12.352 377.766 12.216 377.638 11.944C377.526 11.672 377.47 11.432 377.47 11.224C377.47 11.08 377.606 10.928 377.878 10.768C378.166 10.608 378.526 10.456 378.958 10.312C379.406 10.168 379.87 10.056 380.35 9.976C380.83 9.88 381.27 9.832 381.67 9.832C382.342 9.832 382.982 9.92 383.59 10.096C384.198 10.256 384.694 10.536 385.078 10.936C385.462 11.336 385.654 11.888 385.654 12.592C385.654 13.088 385.582 13.744 385.438 14.56C385.294 15.36 385.142 16.208 384.982 17.104C384.838 18 384.766 18.848 384.766 19.648C384.766 20.192 384.806 20.608 384.886 20.896C384.982 21.184 385.03 21.44 385.03 21.664C385.03 21.808 384.942 21.928 384.766 22.024C384.606 22.12 384.414 22.192 384.19 22.24C383.982 22.304 383.798 22.336 383.638 22.336C383.494 22.336 383.382 22.216 383.302 21.976C383.222 21.736 383.166 21.448 383.134 21.112C383.118 20.776 383.11 20.464 383.11 20.176V19.552C382.614 20.512 381.974 21.216 381.19 21.664C380.406 22.112 379.638 22.336 378.886 22.336ZM379.51 20.752C380.054 20.752 380.542 20.608 380.974 20.32C381.406 20.016 381.782 19.624 382.102 19.144C382.438 18.648 382.71 18.112 382.918 17.536C383.126 16.96 383.278 16.4 383.374 15.856C381.934 15.968 380.798 16.176 379.966 16.48C379.15 16.768 378.566 17.128 378.214 17.56C377.878 17.992 377.71 18.488 377.71 19.048C377.71 19.512 377.87 19.912 378.19 20.248C378.51 20.584 378.95 20.752 379.51 20.752ZM389.23 22.336C389.006 22.336 388.838 22.304 388.726 22.24C388.63 22.176 388.582 22.048 388.582 21.856L389.95 10.432C389.982 10.16 390.094 9.992 390.286 9.928C390.494 9.864 390.734 9.832 391.006 9.832C391.23 9.832 391.406 9.872 391.534 9.952C391.678 10.016 391.75 10.136 391.75 10.312L391.534 11.992H391.678C392.158 11.288 392.702 10.752 393.31 10.384C393.918 10.016 394.638 9.832 395.47 9.832C396.718 9.832 397.654 10.12 398.278 10.696C398.918 11.272 399.238 12.048 399.238 13.024C399.238 13.072 399.23 13.152 399.214 13.264C399.214 13.376 399.19 13.584 399.142 13.888C399.11 14.176 399.054 14.624 398.974 15.232C398.894 15.84 398.782 16.672 398.638 17.728C398.51 18.768 398.342 20.104 398.134 21.736C398.102 21.992 397.966 22.152 397.726 22.216C397.486 22.296 397.23 22.336 396.958 22.336C396.75 22.336 396.59 22.304 396.478 22.24C396.382 22.176 396.334 22.048 396.334 21.856L397.342 13.528C397.374 13.368 397.39 13.248 397.39 13.168C397.39 12 396.67 11.416 395.23 11.416C394.414 11.416 393.71 11.672 393.118 12.184C392.526 12.696 392.046 13.4 391.678 14.296C391.31 15.176 391.054 16.184 390.91 17.32L390.358 21.736C390.326 21.992 390.198 22.152 389.974 22.216C389.75 22.296 389.502 22.336 389.23 22.336ZM404.286 22.336C404.094 22.336 403.926 22.184 403.782 21.88C403.654 21.576 403.55 21.184 403.47 20.704C403.406 20.208 403.374 19.68 403.374 19.12C403.374 18.784 403.39 18.408 403.422 17.992C403.47 17.576 403.502 17.256 403.518 17.032L404.142 11.776H402.774C402.422 11.776 402.246 11.544 402.246 11.08C402.246 10.872 402.31 10.672 402.438 10.48C402.566 10.272 402.734 10.168 402.942 10.168H404.358L404.79 6.472C404.822 6.2 404.982 6 405.27 5.872C405.558 5.744 405.838 5.68 406.11 5.68C406.334 5.68 406.47 5.696 406.518 5.728C406.582 5.76 406.614 5.84 406.614 5.968L406.11 10.168H408.342C408.71 10.168 408.894 10.408 408.894 10.888C408.894 11.08 408.822 11.28 408.678 11.488C408.55 11.68 408.382 11.776 408.174 11.776H405.894L405.27 17.032C405.222 17.416 405.19 17.76 405.174 18.064C405.158 18.368 405.15 18.648 405.15 18.904C405.15 19.688 405.214 20.28 405.342 20.68C405.486 21.08 405.558 21.408 405.558 21.664C405.558 21.872 405.398 22.032 405.078 22.144C404.774 22.272 404.51 22.336 404.286 22.336ZM412.55 22.336C411.91 22.336 411.31 22.248 410.75 22.072C410.19 21.896 409.734 21.688 409.382 21.448C409.03 21.208 408.854 21.008 408.854 20.848C408.854 20.624 408.91 20.384 409.022 20.128C409.134 19.856 409.31 19.72 409.55 19.72C409.598 19.72 409.742 19.816 409.982 20.008C410.222 20.184 410.55 20.368 410.966 20.56C411.398 20.752 411.902 20.848 412.478 20.848C412.766 20.848 413.062 20.8 413.366 20.704C413.686 20.608 413.958 20.448 414.182 20.224C414.406 19.984 414.518 19.672 414.518 19.288C414.518 18.792 414.366 18.36 414.062 17.992C413.774 17.608 413.414 17.248 412.982 16.912C412.55 16.576 412.118 16.232 411.686 15.88C411.254 15.528 410.886 15.128 410.582 14.68C410.294 14.216 410.15 13.68 410.15 13.072C410.15 12.512 410.294 11.984 410.582 11.488C410.87 10.992 411.27 10.592 411.782 10.288C412.31 9.984 412.91 9.832 413.582 9.832C414.43 9.832 415.11 9.952 415.622 10.192C416.15 10.416 416.414 10.664 416.414 10.936C416.414 11.144 416.358 11.376 416.246 11.632C416.15 11.888 415.99 12.016 415.766 12.016C415.718 12.016 415.614 11.96 415.454 11.848C415.294 11.72 415.062 11.6 414.758 11.488C414.454 11.376 414.07 11.32 413.606 11.32C413.078 11.32 412.654 11.464 412.334 11.752C412.03 12.024 411.878 12.408 411.878 12.904C411.878 13.336 412.03 13.736 412.334 14.104C412.638 14.456 413.006 14.808 413.438 15.16C413.886 15.496 414.326 15.856 414.758 16.24C415.206 16.608 415.582 17.024 415.886 17.488C416.19 17.936 416.342 18.464 416.342 19.072C416.342 19.584 416.198 20.096 415.91 20.608C415.638 21.104 415.222 21.52 414.662 21.856C414.102 22.176 413.398 22.336 412.55 22.336ZM418.912 26.848C418.544 26.848 418.36 26.704 418.36 26.416C418.36 26.384 418.368 26.296 418.384 26.152C418.416 26.024 418.464 25.768 418.528 25.384C418.608 25.016 418.712 24.472 418.84 23.752C418.984 23.048 419.16 22.112 419.368 20.944C419.448 20.528 419.616 20.272 419.872 20.176C420.128 20.064 420.368 20.008 420.592 20.008C420.816 20.008 421.024 20.064 421.216 20.176C421.408 20.272 421.504 20.456 421.504 20.728C421.504 20.888 421.456 21.16 421.36 21.544C421.264 21.912 421.096 22.464 420.856 23.2C420.616 23.952 420.28 24.976 419.848 26.272C419.768 26.528 419.616 26.688 419.392 26.752C419.184 26.816 419.024 26.848 418.912 26.848ZM104.195 47.336C103.555 47.336 102.955 47.248 102.395 47.072C101.835 46.896 101.379 46.688 101.027 46.448C100.675 46.208 100.499 46.008 100.499 45.848C100.499 45.624 100.555 45.384 100.667 45.128C100.779 44.856 100.955 44.72 101.195 44.72C101.243 44.72 101.387 44.816 101.627 45.008C101.867 45.184 102.195 45.368 102.611 45.56C103.043 45.752 103.547 45.848 104.123 45.848C104.411 45.848 104.707 45.8 105.011 45.704C105.331 45.608 105.603 45.448 105.827 45.224C106.051 44.984 106.163 44.672 106.163 44.288C106.163 43.792 106.011 43.36 105.707 42.992C105.419 42.608 105.059 42.248 104.627 41.912C104.195 41.576 103.763 41.232 103.331 40.88C102.899 40.528 102.531 40.128 102.227 39.68C101.939 39.216 101.795 38.68 101.795 38.072C101.795 37.512 101.939 36.984 102.227 36.488C102.515 35.992 102.915 35.592 103.427 35.288C103.955 34.984 104.555 34.832 105.227 34.832C106.075 34.832 106.755 34.952 107.267 35.192C107.795 35.416 108.059 35.664 108.059 35.936C108.059 36.144 108.003 36.376 107.891 36.632C107.795 36.888 107.635 37.016 107.411 37.016C107.363 37.016 107.259 36.96 107.099 36.848C106.939 36.72 106.707 36.6 106.403 36.488C106.099 36.376 105.715 36.32 105.251 36.32C104.723 36.32 104.299 36.464 103.979 36.752C103.675 37.024 103.523 37.408 103.523 37.904C103.523 38.336 103.675 38.736 103.979 39.104C104.283 39.456 104.651 39.808 105.083 40.16C105.531 40.496 105.971 40.856 106.403 41.24C106.851 41.608 107.227 42.024 107.531 42.488C107.835 42.936 107.987 43.464 107.987 44.072C107.987 44.584 107.843 45.096 107.555 45.608C107.283 46.104 106.867 46.52 106.307 46.856C105.747 47.176 105.043 47.336 104.195 47.336ZM115.189 47.336C113.509 47.336 112.237 46.872 111.373 45.944C110.509 45.016 110.077 43.712 110.077 42.032C110.077 40.8 110.285 39.736 110.701 38.84C111.133 37.928 111.685 37.176 112.357 36.584C113.029 35.992 113.741 35.552 114.493 35.264C115.245 34.976 115.957 34.832 116.629 34.832C117.477 34.832 118.189 35.04 118.765 35.456C119.341 35.872 119.629 36.48 119.629 37.28C119.629 38.224 119.285 39.056 118.597 39.776C117.909 40.496 116.989 41.056 115.837 41.456C114.701 41.856 113.429 42.056 112.021 42.056C112.021 43.224 112.293 44.152 112.837 44.84C113.397 45.512 114.213 45.848 115.285 45.848C115.845 45.848 116.333 45.744 116.749 45.536C117.181 45.312 117.525 45.096 117.781 44.888C118.053 44.68 118.205 44.576 118.237 44.576C118.429 44.576 118.581 44.704 118.693 44.96C118.821 45.2 118.885 45.432 118.885 45.656C118.885 45.816 118.693 46.032 118.309 46.304C117.925 46.576 117.445 46.816 116.869 47.024C116.309 47.232 115.749 47.336 115.189 47.336ZM112.117 40.64C112.821 40.64 113.517 40.568 114.205 40.424C114.893 40.264 115.509 40.048 116.053 39.776C116.613 39.504 117.053 39.176 117.373 38.792C117.709 38.408 117.877 37.984 117.877 37.52C117.877 37.104 117.749 36.792 117.493 36.584C117.237 36.376 116.917 36.272 116.533 36.272C116.037 36.272 115.477 36.44 114.853 36.776C114.229 37.096 113.653 37.576 113.125 38.216C112.613 38.856 112.277 39.664 112.117 40.64ZM122.171 47.336C121.947 47.336 121.779 47.304 121.667 47.24C121.571 47.176 121.523 47.048 121.523 46.856L123.971 26.336C124.003 26.064 124.115 25.896 124.307 25.832C124.499 25.752 124.739 25.712 125.027 25.712C125.235 25.712 125.411 25.752 125.555 25.832C125.699 25.912 125.771 26.04 125.771 26.216L123.299 46.736C123.267 46.992 123.139 47.152 122.915 47.216C122.691 47.296 122.443 47.336 122.171 47.336ZM128.031 47.336C127.807 47.336 127.639 47.304 127.527 47.24C127.431 47.176 127.383 47.048 127.383 46.856L129.831 26.336C129.863 26.064 129.975 25.896 130.167 25.832C130.359 25.752 130.599 25.712 130.887 25.712C131.095 25.712 131.271 25.752 131.415 25.832C131.559 25.912 131.631 26.04 131.631 26.216L129.159 46.736C129.127 46.992 128.999 47.152 128.775 47.216C128.551 47.296 128.303 47.336 128.031 47.336ZM137.97 47.336C136.29 47.336 135.018 46.872 134.154 45.944C133.29 45.016 132.858 43.712 132.858 42.032C132.858 40.8 133.066 39.736 133.482 38.84C133.914 37.928 134.466 37.176 135.138 36.584C135.81 35.992 136.522 35.552 137.274 35.264C138.026 34.976 138.738 34.832 139.41 34.832C140.258 34.832 140.97 35.04 141.546 35.456C142.122 35.872 142.41 36.48 142.41 37.28C142.41 38.224 142.066 39.056 141.378 39.776C140.69 40.496 139.77 41.056 138.618 41.456C137.482 41.856 136.21 42.056 134.802 42.056C134.802 43.224 135.074 44.152 135.618 44.84C136.178 45.512 136.994 45.848 138.066 45.848C138.626 45.848 139.114 45.744 139.53 45.536C139.962 45.312 140.306 45.096 140.562 44.888C140.834 44.68 140.986 44.576 141.018 44.576C141.21 44.576 141.362 44.704 141.474 44.96C141.602 45.2 141.666 45.432 141.666 45.656C141.666 45.816 141.474 46.032 141.09 46.304C140.706 46.576 140.226 46.816 139.65 47.024C139.09 47.232 138.53 47.336 137.97 47.336ZM134.898 40.64C135.602 40.64 136.298 40.568 136.986 40.424C137.674 40.264 138.29 40.048 138.834 39.776C139.394 39.504 139.834 39.176 140.154 38.792C140.49 38.408 140.658 37.984 140.658 37.52C140.658 37.104 140.53 36.792 140.274 36.584C140.018 36.376 139.698 36.272 139.314 36.272C138.818 36.272 138.258 36.44 137.634 36.776C137.01 37.096 136.434 37.576 135.906 38.216C135.394 38.856 135.058 39.664 134.898 40.64ZM144.952 47.336C144.728 47.336 144.56 47.304 144.448 47.24C144.352 47.176 144.304 47.048 144.304 46.856L145.672 35.432C145.704 35.16 145.816 34.992 146.008 34.928C146.216 34.864 146.456 34.832 146.728 34.832C146.952 34.832 147.128 34.872 147.256 34.952C147.4 35.016 147.472 35.136 147.472 35.312L147.232 37.112H147.352C147.8 36.376 148.384 35.784 149.104 35.336C149.824 34.888 150.576 34.664 151.36 34.664C151.664 34.664 151.856 34.712 151.936 34.808C152.016 34.904 152.056 35.024 152.056 35.168C152.056 35.536 151.984 35.808 151.84 35.984C151.712 36.16 151.56 36.28 151.384 36.344C151.208 36.392 151.064 36.416 150.952 36.416C150.136 36.416 149.424 36.704 148.816 37.28C148.208 37.856 147.72 38.592 147.352 39.488C147 40.384 146.76 41.328 146.632 42.32L146.08 46.736C146.048 46.992 145.92 47.152 145.696 47.216C145.472 47.296 145.224 47.336 144.952 47.336ZM156.015 47.336C155.375 47.336 154.775 47.248 154.215 47.072C153.655 46.896 153.199 46.688 152.847 46.448C152.495 46.208 152.319 46.008 152.319 45.848C152.319 45.624 152.375 45.384 152.487 45.128C152.599 44.856 152.775 44.72 153.015 44.72C153.063 44.72 153.207 44.816 153.447 45.008C153.687 45.184 154.015 45.368 154.431 45.56C154.863 45.752 155.367 45.848 155.943 45.848C156.231 45.848 156.527 45.8 156.831 45.704C157.151 45.608 157.423 45.448 157.647 45.224C157.871 44.984 157.983 44.672 157.983 44.288C157.983 43.792 157.831 43.36 157.527 42.992C157.239 42.608 156.879 42.248 156.447 41.912C156.015 41.576 155.583 41.232 155.151 40.88C154.719 40.528 154.351 40.128 154.047 39.68C153.759 39.216 153.615 38.68 153.615 38.072C153.615 37.512 153.759 36.984 154.047 36.488C154.335 35.992 154.735 35.592 155.247 35.288C155.775 34.984 156.375 34.832 157.047 34.832C157.895 34.832 158.575 34.952 159.087 35.192C159.615 35.416 159.879 35.664 159.879 35.936C159.879 36.144 159.823 36.376 159.711 36.632C159.615 36.888 159.455 37.016 159.231 37.016C159.183 37.016 159.079 36.96 158.919 36.848C158.759 36.72 158.527 36.6 158.223 36.488C157.919 36.376 157.535 36.32 157.071 36.32C156.543 36.32 156.119 36.464 155.799 36.752C155.495 37.024 155.343 37.408 155.343 37.904C155.343 38.336 155.495 38.736 155.799 39.104C156.103 39.456 156.471 39.808 156.903 40.16C157.351 40.496 157.791 40.856 158.223 41.24C158.671 41.608 159.047 42.024 159.351 42.488C159.655 42.936 159.807 43.464 159.807 44.072C159.807 44.584 159.663 45.096 159.375 45.608C159.103 46.104 158.687 46.52 158.127 46.856C157.567 47.176 156.863 47.336 156.015 47.336ZM162.377 51.848C162.009 51.848 161.825 51.704 161.825 51.416C161.825 51.384 161.833 51.296 161.849 51.152C161.881 51.024 161.929 50.768 161.993 50.384C162.073 50.016 162.177 49.472 162.305 48.752C162.449 48.048 162.625 47.112 162.833 45.944C162.913 45.528 163.081 45.272 163.337 45.176C163.593 45.064 163.833 45.008 164.057 45.008C164.281 45.008 164.489 45.064 164.681 45.176C164.873 45.272 164.969 45.456 164.969 45.728C164.969 45.888 164.921 46.16 164.825 46.544C164.729 46.912 164.561 47.464 164.321 48.2C164.081 48.952 163.745 49.976 163.313 51.272C163.233 51.528 163.081 51.688 162.857 51.752C162.649 51.816 162.489 51.848 162.377 51.848ZM176.89 47.336C176.058 47.336 175.338 47.096 174.73 46.616C174.122 46.12 173.818 45.384 173.818 44.408C173.818 43.624 174.05 42.88 174.514 42.176C174.994 41.456 175.802 40.848 176.938 40.352C178.09 39.856 179.674 39.544 181.69 39.416C181.738 39.128 181.77 38.856 181.786 38.6C181.802 38.328 181.81 38.104 181.81 37.928C181.81 37.352 181.594 36.96 181.162 36.752C180.73 36.544 180.21 36.44 179.602 36.44C178.994 36.44 178.458 36.52 177.994 36.68C177.53 36.824 177.146 36.976 176.842 37.136C176.538 37.28 176.314 37.352 176.17 37.352C175.946 37.352 175.77 37.216 175.642 36.944C175.53 36.672 175.474 36.432 175.474 36.224C175.474 36.08 175.61 35.928 175.882 35.768C176.17 35.608 176.53 35.456 176.962 35.312C177.41 35.168 177.874 35.056 178.354 34.976C178.834 34.88 179.274 34.832 179.674 34.832C180.346 34.832 180.986 34.92 181.594 35.096C182.202 35.256 182.698 35.536 183.082 35.936C183.466 36.336 183.658 36.888 183.658 37.592C183.658 38.088 183.586 38.744 183.442 39.56C183.298 40.36 183.146 41.208 182.986 42.104C182.842 43 182.77 43.848 182.77 44.648C182.77 45.192 182.81 45.608 182.89 45.896C182.986 46.184 183.034 46.44 183.034 46.664C183.034 46.808 182.946 46.928 182.77 47.024C182.61 47.12 182.418 47.192 182.194 47.24C181.986 47.304 181.802 47.336 181.642 47.336C181.498 47.336 181.386 47.216 181.306 46.976C181.226 46.736 181.17 46.448 181.138 46.112C181.122 45.776 181.114 45.464 181.114 45.176V44.552C180.618 45.512 179.978 46.216 179.194 46.664C178.41 47.112 177.642 47.336 176.89 47.336ZM177.514 45.752C178.058 45.752 178.546 45.608 178.978 45.32C179.41 45.016 179.786 44.624 180.106 44.144C180.442 43.648 180.714 43.112 180.922 42.536C181.13 41.96 181.282 41.4 181.378 40.856C179.938 40.968 178.802 41.176 177.97 41.48C177.154 41.768 176.57 42.128 176.218 42.56C175.882 42.992 175.714 43.488 175.714 44.048C175.714 44.512 175.874 44.912 176.194 45.248C176.514 45.584 176.954 45.752 177.514 45.752ZM187.234 47.336C187.01 47.336 186.842 47.304 186.73 47.24C186.634 47.176 186.586 47.048 186.586 46.856L187.954 35.432C187.986 35.16 188.098 34.992 188.29 34.928C188.498 34.864 188.738 34.832 189.01 34.832C189.234 34.832 189.41 34.872 189.538 34.952C189.682 35.016 189.754 35.136 189.754 35.312L189.538 36.992H189.682C190.162 36.288 190.706 35.752 191.314 35.384C191.922 35.016 192.642 34.832 193.474 34.832C194.722 34.832 195.658 35.12 196.282 35.696C196.922 36.272 197.242 37.048 197.242 38.024C197.242 38.072 197.234 38.152 197.218 38.264C197.218 38.376 197.194 38.584 197.146 38.888C197.114 39.176 197.058 39.624 196.978 40.232C196.898 40.84 196.786 41.672 196.642 42.728C196.514 43.768 196.346 45.104 196.138 46.736C196.106 46.992 195.97 47.152 195.73 47.216C195.49 47.296 195.234 47.336 194.962 47.336C194.754 47.336 194.594 47.304 194.482 47.24C194.386 47.176 194.338 47.048 194.338 46.856L195.346 38.528C195.378 38.368 195.394 38.248 195.394 38.168C195.394 37 194.674 36.416 193.234 36.416C192.418 36.416 191.714 36.672 191.122 37.184C190.53 37.696 190.05 38.4 189.682 39.296C189.314 40.176 189.058 41.184 188.914 42.32L188.362 46.736C188.33 46.992 188.202 47.152 187.978 47.216C187.754 47.296 187.506 47.336 187.234 47.336ZM203.346 47.336C202.706 47.336 202.098 47.184 201.522 46.88C200.962 46.576 200.498 46.104 200.13 45.464C199.778 44.824 199.602 44 199.602 42.992C199.602 42.352 199.682 41.664 199.842 40.928C200.018 40.176 200.306 39.44 200.706 38.72C201.106 38 201.642 37.352 202.314 36.776C203.002 36.184 203.85 35.712 204.858 35.36C205.866 35.008 207.066 34.832 208.458 34.832L209.538 26.264C209.554 26.04 209.674 25.896 209.898 25.832C210.122 25.752 210.37 25.712 210.642 25.712C211.09 25.712 211.314 25.896 211.314 26.264L209.394 42.032C209.362 42.416 209.338 42.76 209.322 43.064C209.306 43.368 209.298 43.648 209.298 43.904C209.298 44.688 209.37 45.28 209.514 45.68C209.658 46.08 209.73 46.408 209.73 46.664C209.73 46.808 209.65 46.928 209.49 47.024C209.33 47.12 209.146 47.192 208.938 47.24C208.73 47.304 208.554 47.336 208.41 47.336C208.25 47.336 208.122 47.224 208.026 47C207.946 46.776 207.882 46.504 207.834 46.184C207.786 45.864 207.746 45.552 207.714 45.248C207.698 44.944 207.674 44.712 207.642 44.552C207.258 45.432 206.658 46.12 205.842 46.616C205.026 47.096 204.194 47.336 203.346 47.336ZM203.922 45.752C204.626 45.752 205.21 45.568 205.674 45.2C206.138 44.832 206.514 44.352 206.802 43.76C207.106 43.152 207.338 42.496 207.498 41.792C207.674 41.088 207.802 40.392 207.882 39.704L208.29 36.392C208.226 36.36 208.122 36.344 207.978 36.344C207.834 36.328 207.746 36.32 207.714 36.32C206.53 36.32 205.474 36.616 204.546 37.208C203.618 37.8 202.89 38.584 202.362 39.56C201.834 40.536 201.57 41.608 201.57 42.776C201.57 43.56 201.754 44.256 202.122 44.864C202.506 45.456 203.106 45.752 203.922 45.752ZM220.351 47.336C220.127 47.336 219.959 47.304 219.847 47.24C219.751 47.176 219.703 47.048 219.703 46.856L222.151 26.336C222.183 26.064 222.295 25.896 222.487 25.832C222.679 25.752 222.919 25.712 223.207 25.712C223.415 25.712 223.591 25.752 223.735 25.832C223.879 25.912 223.951 26.04 223.951 26.216L221.479 46.736C221.447 46.992 221.319 47.152 221.095 47.216C220.871 47.296 220.623 47.336 220.351 47.336ZM227.89 47.336C227.058 47.336 226.338 47.096 225.73 46.616C225.122 46.12 224.818 45.384 224.818 44.408C224.818 43.624 225.05 42.88 225.514 42.176C225.994 41.456 226.802 40.848 227.938 40.352C229.09 39.856 230.674 39.544 232.69 39.416C232.738 39.128 232.77 38.856 232.786 38.6C232.802 38.328 232.81 38.104 232.81 37.928C232.81 37.352 232.594 36.96 232.162 36.752C231.73 36.544 231.21 36.44 230.602 36.44C229.994 36.44 229.458 36.52 228.994 36.68C228.53 36.824 228.146 36.976 227.842 37.136C227.538 37.28 227.314 37.352 227.17 37.352C226.946 37.352 226.77 37.216 226.642 36.944C226.53 36.672 226.474 36.432 226.474 36.224C226.474 36.08 226.61 35.928 226.882 35.768C227.17 35.608 227.53 35.456 227.962 35.312C228.41 35.168 228.874 35.056 229.354 34.976C229.834 34.88 230.274 34.832 230.674 34.832C231.346 34.832 231.986 34.92 232.594 35.096C233.202 35.256 233.698 35.536 234.082 35.936C234.466 36.336 234.658 36.888 234.658 37.592C234.658 38.088 234.586 38.744 234.442 39.56C234.298 40.36 234.146 41.208 233.986 42.104C233.842 43 233.77 43.848 233.77 44.648C233.77 45.192 233.81 45.608 233.89 45.896C233.986 46.184 234.034 46.44 234.034 46.664C234.034 46.808 233.946 46.928 233.77 47.024C233.61 47.12 233.418 47.192 233.194 47.24C232.986 47.304 232.802 47.336 232.642 47.336C232.498 47.336 232.386 47.216 232.306 46.976C232.226 46.736 232.17 46.448 232.138 46.112C232.122 45.776 232.114 45.464 232.114 45.176V44.552C231.618 45.512 230.978 46.216 230.194 46.664C229.41 47.112 228.642 47.336 227.89 47.336ZM228.514 45.752C229.058 45.752 229.546 45.608 229.978 45.32C230.41 45.016 230.786 44.624 231.106 44.144C231.442 43.648 231.714 43.112 231.922 42.536C232.13 41.96 232.282 41.4 232.378 40.856C230.938 40.968 229.802 41.176 228.97 41.48C228.154 41.768 227.57 42.128 227.218 42.56C226.882 42.992 226.714 43.488 226.714 44.048C226.714 44.512 226.874 44.912 227.194 45.248C227.514 45.584 227.954 45.752 228.514 45.752ZM238.234 47.336C238.01 47.336 237.842 47.304 237.73 47.24C237.634 47.176 237.586 47.048 237.586 46.856L238.954 35.432C238.986 35.16 239.098 34.992 239.29 34.928C239.498 34.864 239.738 34.832 240.01 34.832C240.234 34.832 240.41 34.872 240.538 34.952C240.682 35.016 240.754 35.136 240.754 35.312L240.538 36.992H240.682C241.162 36.288 241.706 35.752 242.314 35.384C242.922 35.016 243.642 34.832 244.474 34.832C245.722 34.832 246.658 35.12 247.282 35.696C247.922 36.272 248.242 37.048 248.242 38.024C248.242 38.072 248.234 38.152 248.218 38.264C248.218 38.376 248.194 38.584 248.146 38.888C248.114 39.176 248.058 39.624 247.978 40.232C247.898 40.84 247.786 41.672 247.642 42.728C247.514 43.768 247.346 45.104 247.138 46.736C247.106 46.992 246.97 47.152 246.73 47.216C246.49 47.296 246.234 47.336 245.962 47.336C245.754 47.336 245.594 47.304 245.482 47.24C245.386 47.176 245.338 47.048 245.338 46.856L246.346 38.528C246.378 38.368 246.394 38.248 246.394 38.168C246.394 37 245.674 36.416 244.234 36.416C243.418 36.416 242.714 36.672 242.122 37.184C241.53 37.696 241.05 38.4 240.682 39.296C240.314 40.176 240.058 41.184 239.914 42.32L239.362 46.736C239.33 46.992 239.202 47.152 238.978 47.216C238.754 47.296 238.506 47.336 238.234 47.336ZM254.346 47.336C253.706 47.336 253.098 47.184 252.522 46.88C251.962 46.576 251.498 46.104 251.13 45.464C250.778 44.824 250.602 44 250.602 42.992C250.602 42.352 250.682 41.664 250.842 40.928C251.018 40.176 251.306 39.44 251.706 38.72C252.106 38 252.642 37.352 253.314 36.776C254.002 36.184 254.85 35.712 255.858 35.36C256.866 35.008 258.066 34.832 259.458 34.832L260.538 26.264C260.554 26.04 260.674 25.896 260.898 25.832C261.122 25.752 261.37 25.712 261.642 25.712C262.09 25.712 262.314 25.896 262.314 26.264L260.394 42.032C260.362 42.416 260.338 42.76 260.322 43.064C260.306 43.368 260.298 43.648 260.298 43.904C260.298 44.688 260.37 45.28 260.514 45.68C260.658 46.08 260.73 46.408 260.73 46.664C260.73 46.808 260.65 46.928 260.49 47.024C260.33 47.12 260.146 47.192 259.938 47.24C259.73 47.304 259.554 47.336 259.41 47.336C259.25 47.336 259.122 47.224 259.026 47C258.946 46.776 258.882 46.504 258.834 46.184C258.786 45.864 258.746 45.552 258.714 45.248C258.698 44.944 258.674 44.712 258.642 44.552C258.258 45.432 257.658 46.12 256.842 46.616C256.026 47.096 255.194 47.336 254.346 47.336ZM254.922 45.752C255.626 45.752 256.21 45.568 256.674 45.2C257.138 44.832 257.514 44.352 257.802 43.76C258.106 43.152 258.338 42.496 258.498 41.792C258.674 41.088 258.802 40.392 258.882 39.704L259.29 36.392C259.226 36.36 259.122 36.344 258.978 36.344C258.834 36.328 258.746 36.32 258.714 36.32C257.53 36.32 256.474 36.616 255.546 37.208C254.618 37.8 253.89 38.584 253.362 39.56C252.834 40.536 252.57 41.608 252.57 42.776C252.57 43.56 252.754 44.256 253.122 44.864C253.506 45.456 254.106 45.752 254.922 45.752ZM264.624 47.336C264.4 47.336 264.232 47.304 264.12 47.24C264.024 47.176 263.976 47.048 263.976 46.856L266.424 26.336C266.456 26.064 266.568 25.896 266.76 25.832C266.952 25.752 267.192 25.712 267.48 25.712C267.688 25.712 267.864 25.752 268.008 25.832C268.152 25.912 268.224 26.04 268.224 26.216L265.752 46.736C265.72 46.992 265.592 47.152 265.368 47.216C265.144 47.296 264.896 47.336 264.624 47.336ZM274.156 47.336C273.116 47.336 272.244 47.088 271.54 46.592C270.852 46.096 270.332 45.448 269.98 44.648C269.644 43.832 269.468 42.96 269.452 42.032C269.452 41.216 269.572 40.392 269.812 39.56C270.052 38.712 270.428 37.936 270.94 37.232C271.452 36.512 272.108 35.936 272.908 35.504C273.708 35.056 274.668 34.832 275.788 34.832C276.844 34.832 277.716 35.088 278.404 35.6C279.108 36.096 279.628 36.752 279.964 37.568C280.316 38.384 280.492 39.264 280.492 40.208C280.492 41.488 280.228 42.672 279.7 43.76C279.188 44.832 278.452 45.696 277.492 46.352C276.548 47.008 275.436 47.336 274.156 47.336ZM274.372 45.848C275.204 45.848 275.94 45.6 276.58 45.104C277.22 44.592 277.724 43.928 278.092 43.112C278.46 42.28 278.644 41.384 278.644 40.424C278.644 39.256 278.396 38.28 277.9 37.496C277.42 36.712 276.66 36.32 275.62 36.32C274.9 36.32 274.268 36.488 273.724 36.824C273.196 37.16 272.756 37.6 272.404 38.144C272.052 38.688 271.788 39.28 271.612 39.92C271.452 40.56 271.372 41.184 271.372 41.792C271.372 42.96 271.612 43.928 272.092 44.696C272.572 45.464 273.332 45.848 274.372 45.848ZM283.562 47.336C283.338 47.336 283.17 47.304 283.058 47.24C282.962 47.176 282.914 47.048 282.914 46.856L284.282 35.432C284.314 35.16 284.426 34.992 284.618 34.928C284.826 34.864 285.066 34.832 285.338 34.832C285.562 34.832 285.738 34.872 285.866 34.952C286.01 35.016 286.082 35.136 286.082 35.312L285.842 37.112H285.962C286.41 36.376 286.994 35.784 287.714 35.336C288.434 34.888 289.186 34.664 289.97 34.664C290.274 34.664 290.466 34.712 290.546 34.808C290.626 34.904 290.666 35.024 290.666 35.168C290.666 35.536 290.594 35.808 290.45 35.984C290.322 36.16 290.17 36.28 289.994 36.344C289.818 36.392 289.674 36.416 289.562 36.416C288.746 36.416 288.034 36.704 287.426 37.28C286.818 37.856 286.33 38.592 285.962 39.488C285.61 40.384 285.37 41.328 285.242 42.32L284.69 46.736C284.658 46.992 284.53 47.152 284.306 47.216C284.082 47.296 283.834 47.336 283.562 47.336ZM295.057 47.336C294.417 47.336 293.809 47.184 293.233 46.88C292.673 46.576 292.209 46.104 291.841 45.464C291.489 44.824 291.313 44 291.313 42.992C291.313 42.352 291.393 41.664 291.553 40.928C291.729 40.176 292.017 39.44 292.417 38.72C292.817 38 293.353 37.352 294.025 36.776C294.713 36.184 295.561 35.712 296.569 35.36C297.577 35.008 298.777 34.832 300.169 34.832L301.249 26.264C301.265 26.04 301.385 25.896 301.609 25.832C301.833 25.752 302.081 25.712 302.353 25.712C302.801 25.712 303.025 25.896 303.025 26.264L301.105 42.032C301.073 42.416 301.049 42.76 301.033 43.064C301.017 43.368 301.009 43.648 301.009 43.904C301.009 44.688 301.081 45.28 301.225 45.68C301.369 46.08 301.441 46.408 301.441 46.664C301.441 46.808 301.361 46.928 301.201 47.024C301.041 47.12 300.857 47.192 300.649 47.24C300.441 47.304 300.265 47.336 300.121 47.336C299.961 47.336 299.833 47.224 299.737 47C299.657 46.776 299.593 46.504 299.545 46.184C299.497 45.864 299.457 45.552 299.425 45.248C299.409 44.944 299.385 44.712 299.353 44.552C298.969 45.432 298.369 46.12 297.553 46.616C296.737 47.096 295.905 47.336 295.057 47.336ZM295.633 45.752C296.337 45.752 296.921 45.568 297.385 45.2C297.849 44.832 298.225 44.352 298.513 43.76C298.817 43.152 299.049 42.496 299.209 41.792C299.385 41.088 299.513 40.392 299.593 39.704L300.001 36.392C299.937 36.36 299.833 36.344 299.689 36.344C299.545 36.328 299.457 36.32 299.425 36.32C298.241 36.32 297.185 36.616 296.257 37.208C295.329 37.8 294.601 38.584 294.073 39.56C293.545 40.536 293.281 41.608 293.281 42.776C293.281 43.56 293.465 44.256 293.833 44.864C294.217 45.456 294.817 45.752 295.633 45.752ZM307.351 47.336C306.711 47.336 306.111 47.248 305.551 47.072C304.991 46.896 304.535 46.688 304.183 46.448C303.831 46.208 303.655 46.008 303.655 45.848C303.655 45.624 303.711 45.384 303.823 45.128C303.935 44.856 304.111 44.72 304.351 44.72C304.399 44.72 304.543 44.816 304.783 45.008C305.023 45.184 305.351 45.368 305.767 45.56C306.199 45.752 306.703 45.848 307.279 45.848C307.567 45.848 307.863 45.8 308.167 45.704C308.487 45.608 308.759 45.448 308.983 45.224C309.207 44.984 309.319 44.672 309.319 44.288C309.319 43.792 309.167 43.36 308.863 42.992C308.575 42.608 308.215 42.248 307.783 41.912C307.351 41.576 306.919 41.232 306.487 40.88C306.055 40.528 305.687 40.128 305.383 39.68C305.095 39.216 304.951 38.68 304.951 38.072C304.951 37.512 305.095 36.984 305.383 36.488C305.671 35.992 306.071 35.592 306.583 35.288C307.111 34.984 307.711 34.832 308.383 34.832C309.231 34.832 309.911 34.952 310.423 35.192C310.951 35.416 311.215 35.664 311.215 35.936C311.215 36.144 311.159 36.376 311.047 36.632C310.951 36.888 310.791 37.016 310.567 37.016C310.519 37.016 310.415 36.96 310.255 36.848C310.095 36.72 309.863 36.6 309.559 36.488C309.255 36.376 308.871 36.32 308.407 36.32C307.879 36.32 307.455 36.464 307.135 36.752C306.831 37.024 306.679 37.408 306.679 37.904C306.679 38.336 306.831 38.736 307.135 39.104C307.439 39.456 307.807 39.808 308.239 40.16C308.687 40.496 309.127 40.856 309.559 41.24C310.007 41.608 310.383 42.024 310.687 42.488C310.991 42.936 311.143 43.464 311.143 44.072C311.143 44.584 310.999 45.096 310.711 45.608C310.439 46.104 310.023 46.52 309.463 46.856C308.903 47.176 308.199 47.336 307.351 47.336ZM314.241 47.336C313.825 47.336 313.537 47.248 313.377 47.072C313.233 46.896 313.161 46.68 313.161 46.424C313.161 46.056 313.249 45.72 313.425 45.416C313.617 45.112 313.985 44.96 314.529 44.96C314.945 44.96 315.225 45.048 315.369 45.224C315.529 45.384 315.609 45.592 315.609 45.848C315.609 46.216 315.521 46.56 315.345 46.88C315.169 47.184 314.801 47.336 314.241 47.336ZM323.629 31.928C323.245 31.928 323.053 31.784 323.053 31.496C323.053 31.464 323.053 31.392 323.053 31.28C323.069 31.152 323.093 30.912 323.125 30.56C323.157 30.208 323.205 29.672 323.269 28.952C323.349 28.216 323.445 27.24 323.557 26.024C323.589 25.608 323.733 25.352 323.989 25.256C324.245 25.144 324.485 25.088 324.709 25.088C324.933 25.088 325.149 25.144 325.357 25.256C325.581 25.352 325.693 25.544 325.693 25.832C325.693 25.832 325.677 25.888 325.645 26C325.629 26.096 325.581 26.328 325.501 26.696C325.437 27.048 325.325 27.6 325.165 28.352C325.005 29.088 324.789 30.088 324.517 31.352C324.453 31.608 324.317 31.768 324.109 31.832C323.917 31.896 323.757 31.928 323.629 31.928ZM319.789 31.928C319.405 31.928 319.213 31.784 319.213 31.496C319.213 31.464 319.213 31.392 319.213 31.28C319.229 31.152 319.253 30.912 319.285 30.56C319.317 30.208 319.365 29.672 319.429 28.952C319.509 28.216 319.605 27.24 319.717 26.024C319.749 25.608 319.893 25.352 320.149 25.256C320.405 25.144 320.645 25.088 320.869 25.088C321.093 25.088 321.309 25.144 321.517 25.256C321.741 25.352 321.853 25.544 321.853 25.832C321.853 25.832 321.837 25.888 321.805 26C321.789 26.096 321.741 26.328 321.661 26.696C321.597 27.048 321.485 27.6 321.325 28.352C321.165 29.088 320.949 30.088 320.677 31.352C320.613 31.608 320.477 31.768 320.269 31.832C320.077 31.896 319.917 31.928 319.789 31.928Z" fill="#0C2C55"/>
</svg>
