<svg width="18" height="18" viewBox="0 0 18 18" fill="none" xmlns="http://www.w3.org/2000/svg">
<path d="M16.9979 1.77343L16.9695 1.75581L13.3725 0L9.4901 5.12891L11.2763 7.48875C11.2228 8.3787 10.8419 9.21835 10.2057 9.84875C9.56941 10.4792 8.72197 10.8566 7.82376 10.9095L5.44207 9.13973L0.265625 12.9863L2.02298 16.5205L2.03777 16.5503L2.05559 16.5785C2.14937 16.7282 2.28027 16.8516 2.43582 16.9371C2.59137 17.0225 2.76639 17.067 2.94424 17.0665H3.87239C5.66074 17.0665 7.43157 16.7175 9.08379 16.0394C10.736 15.3613 12.2373 14.3674 13.5018 13.1145C14.7664 11.8616 15.7694 10.3741 16.4538 8.73708C17.1382 7.10004 17.4904 5.34548 17.4904 3.57357V2.65391C17.491 2.4777 17.446 2.30429 17.3598 2.15017C17.2736 1.99604 17.149 1.86635 16.9979 1.77343ZM16.1612 3.57357C16.1612 10.2874 10.6484 15.7494 3.87239 15.7494H3.12136L1.94555 13.3844L5.44232 10.7859L7.38913 12.2326H7.61066C8.93664 12.2311 10.2079 11.7086 11.1455 10.7796C12.0831 9.85058 12.6105 8.59103 12.612 7.27724V7.05775L11.1519 5.12887L13.7742 1.66444L16.1612 2.82965V3.57357Z" fill="white"/>
</svg>
