<svg width="18" height="14" viewBox="0 0 18 14" fill="none" xmlns="http://www.w3.org/2000/svg">
<path d="M6.99219 0.757812C7.19531 2.03906 7.42188 3.36719 7.67188 4.74219C7.9375 6.10156 8.07031 7.40625 8.07031 8.65625C8.07031 10.0156 7.78125 11.0547 7.20312 11.7734C6.64062 12.4922 5.875 12.9844 4.90625 13.25C3.95312 13.5156 2.89062 13.6484 1.71875 13.6484C1.625 13.6484 1.53125 13.6484 1.4375 13.6484C1.34375 13.6484 1.25 13.6484 1.15625 13.6484V10.1094C1.85938 9.98438 2.30469 9.71094 2.49219 9.28906C2.69531 8.86719 2.79688 8.32031 2.79688 7.64844C2.79688 7.44531 2.78906 7.20312 2.77344 6.92188C2.77344 6.64062 2.76562 6.375 2.75 6.125C2.75 5.875 2.74219 5.70312 2.72656 5.60938L0.875 6.28906C0.84375 5.96094 0.796875 5.55469 0.734375 5.07031C0.6875 4.57031 0.632812 4.05469 0.570312 3.52344C0.507812 2.99219 0.445312 2.48438 0.382812 2C0.335938 1.5 0.296875 1.08594 0.265625 0.757812H6.99219ZM16.7422 0.757812C16.9453 2.03906 17.1719 3.36719 17.4219 4.74219C17.6875 6.10156 17.8203 7.40625 17.8203 8.65625C17.8203 10.0156 17.5312 11.0547 16.9531 11.7734C16.3906 12.4922 15.625 12.9844 14.6562 13.25C13.7031 13.5156 12.6406 13.6484 11.4688 13.6484C11.375 13.6484 11.2812 13.6484 11.1875 13.6484C11.0938 13.6484 11 13.6484 10.9062 13.6484V10.1094C11.6094 9.98438 12.0547 9.71094 12.2422 9.28906C12.4453 8.86719 12.5469 8.32031 12.5469 7.64844C12.5469 7.44531 12.5391 7.20312 12.5234 6.92188C12.5234 6.64062 12.5156 6.375 12.5 6.125C12.5 5.875 12.4922 5.70312 12.4766 5.60938L10.625 6.28906C10.5938 5.96094 10.5469 5.55469 10.4844 5.07031C10.4375 4.57031 10.3828 4.05469 10.3203 3.52344C10.2578 2.99219 10.1953 2.48438 10.1328 2C10.0859 1.5 10.0469 1.08594 10.0156 0.757812H16.7422Z" fill="#DD88CF"/>
</svg>
