<svg width="18" height="14" viewBox="0 0 18 14" fill="none" xmlns="http://www.w3.org/2000/svg">
<path d="M11.0938 13.6484C10.8906 12.3672 10.6562 11.0391 10.3906 9.66406C10.1406 8.28906 10.0156 6.98438 10.0156 5.75C10.0156 4.39062 10.2969 3.35156 10.8594 2.63281C11.4375 1.91406 12.2109 1.42187 13.1797 1.15625C14.1484 0.890625 15.2109 0.757812 16.3672 0.757812C16.4609 0.757812 16.5547 0.757812 16.6484 0.757812C16.7422 0.757812 16.8359 0.757812 16.9297 0.757812V4.29688C16.2266 4.42187 15.7734 4.69531 15.5703 5.11719C15.3828 5.52344 15.2891 6.07031 15.2891 6.75781C15.2891 6.94531 15.2891 7.1875 15.2891 7.48438C15.3047 7.76562 15.3125 8.03125 15.3125 8.28125C15.3281 8.53125 15.3438 8.70312 15.3594 8.79688L17.2109 8.11719C17.2422 8.44531 17.2812 8.85938 17.3281 9.35938C17.3906 9.84375 17.4531 10.3516 17.5156 10.8828C17.5781 11.4141 17.6328 11.9297 17.6797 12.4297C17.7422 12.9141 17.7891 13.3203 17.8203 13.6484H11.0938ZM1.34375 13.6484C1.14062 12.3672 0.90625 11.0391 0.640625 9.66406C0.390625 8.28906 0.265625 6.98438 0.265625 5.75C0.265625 4.39062 0.546875 3.35156 1.10938 2.63281C1.6875 1.91406 2.46094 1.42187 3.42969 1.15625C4.39844 0.890625 5.46094 0.757812 6.61719 0.757812C6.71094 0.757812 6.80469 0.757812 6.89844 0.757812C6.99219 0.757812 7.08594 0.757812 7.17969 0.757812V4.29688C6.47656 4.42187 6.02344 4.69531 5.82031 5.11719C5.63281 5.52344 5.53906 6.07031 5.53906 6.75781C5.53906 6.94531 5.53906 7.1875 5.53906 7.48438C5.55469 7.76562 5.5625 8.03125 5.5625 8.28125C5.57812 8.53125 5.59375 8.70312 5.60938 8.79688L7.46094 8.11719C7.49219 8.44531 7.53125 8.85938 7.57812 9.35938C7.64062 9.84375 7.70312 10.3516 7.76562 10.8828C7.82812 11.4141 7.88281 11.9297 7.92969 12.4297C7.99219 12.9141 8.03906 13.3203 8.07031 13.6484H1.34375Z" fill="#DD88CF"/>
</svg>
